<svg width="962" height="215" viewBox="0 0 962 215" fill="none" xmlns="http://www.w3.org/2000/svg">
<g id="art-line">
<path id="Vector 1" d="M32.5 -16C71.3333 20 171.3 93 260.5 97C305 97.6667 406.8 94.2 458 75C521.167 60.1667 556 24.5 721 43C798.5 60.8333 957 28 982.5 114.5" stroke="#F89D9B" stroke-width="2"/>
<path id="Vector 4" d="M1 0C44.9506 40.0782 156.075 119.482 248.965 116.47C295.171 113.363 400.36 100.223 451.475 72.5239C515.446 49.0485 547.905 2.895 720.87 10.7361C803.048 25.4662 964.013 -28.139 999.315 74.1228" stroke="#F89D9B" stroke-width="2"/>
<path id="Vector 2" d="M38.5365 -42.5287C74.6359 -3.78776 169.002 76.3206 257.672 86.8268C302.004 90.7428 403.785 94.7229 456.251 79.3148C520.333 69.136 557.679 36.1096 720.886 66.6149C796.876 90.0627 896.5 81.5 993.5 138" stroke="#F89D9B" stroke-width="2"/>
<path id="Vector 3" d="M33.9676 -82.4C68.9256 -40.0244 162.175 49.6599 255.507 69.3917C302.289 77.925 410.136 92.5233 467.268 82.6502C536.288 79.2013 578.901 50.1923 749.707 97.6393C828.419 128.943 1000.88 124.615 1013.42 214.433" stroke="#F89D9B" stroke-width="2"/>
</g>
</svg>
