<svg width="115" height="160" viewBox="0 0 115 160" fill="none" xmlns="http://www.w3.org/2000/svg">
<g id="object-card-center ">
<g id="disc-card-center">
<path id="Vector" d="M81.2452 37.1162L50.5626 2.15472C49.2886 0.788194 46.6874 1.10027 44.8394 1.00726C42.9913 0.914258 41.1952 1.56754 39.8793 2.81977L4.03353 36.8926C1.50341 39.3018 0 42.5705 0 45.9764V141.616C0 147.686 5.27565 152.037 11.6049 151.246L74.7352 143.363C80.1312 142.69 84.4204 137.626 84.4204 132.119V45.2744C84.4232 42.2338 83.2919 39.3108 81.2452 37.1162ZM44.5713 41.455C39.8966 41.4673 36.0701 37.7089 36.0701 33.0614C36.0701 28.4139 39.8966 24.7099 44.5713 24.7883C49.1957 24.8657 52.9081 28.6229 52.9081 33.1813C52.9081 37.7398 49.1957 41.4432 44.5713 41.455V41.455Z" fill="#865BEF"/>
<path id="Vector_2" d="M84.1401 37.1212L52.8516 3.42542C51.596 2.06639 49.8613 1.25032 48.0151 1.15013C46.1687 1.05824 44.4001 1.70649 43.0914 2.95591L25.4768 19.785L7.62447 36.9044C5.11226 39.3046 3.72803 42.5632 3.72803 45.9557V141.24C3.72803 147.287 8.93149 151.605 15.2092 150.821L61.1799 145.059L77.6676 142.996C83.0266 142.323 87.2711 137.264 87.2711 131.778V45.2509C87.2711 42.2214 86.1717 39.3097 84.1401 37.1212ZM47.7516 24.8427C52.343 24.9178 56.0279 28.6621 56.0279 33.2032C56.0279 37.7442 52.343 41.4359 47.7516 41.4477C43.1132 41.4595 39.313 37.7157 39.313 33.085C39.313 28.4542 43.1132 24.7648 47.7516 24.8427Z" fill="#AA80F9"/>
<g id="Group" style="mix-blend-mode:multiply" opacity="0.15">
<path id="Vector_3" style="mix-blend-mode:multiply" opacity="0.15" d="M44.3688 76.2013C44.2071 86.8937 37.5293 92.4494 30.094 92.4214C21.9933 92.39 15.4996 86.1709 15.6541 75.9587C15.8012 66.249 21.9094 59.3313 30.9847 60.0103C39.792 60.6692 44.5008 67.4749 44.3688 76.2013ZM25.1378 75.9962C25.0533 81.5744 26.8762 85.628 30.4369 85.6941C33.864 85.758 35.5721 82.2618 35.6606 76.4103C35.7406 71.1195 34.3854 66.946 30.6434 66.7214C27.0021 66.5028 25.2184 70.6635 25.1378 75.9962V75.9962ZM32.6549 110.371L58.4551 63.5939C58.6966 63.1555 59.0587 62.7957 59.4984 62.5573C59.938 62.319 60.4368 62.212 60.9354 62.2492V62.2492C62.8277 62.3904 63.9417 64.4421 63.0319 66.1095L37.5181 112.874C37.3029 113.269 36.9896 113.601 36.6085 113.839C36.2274 114.077 35.7914 114.212 35.3428 114.232L35.0568 114.245C33.0185 114.337 31.669 112.158 32.6549 110.371V110.371ZM76.8004 97.1882C76.651 107.091 70.9188 112.509 64.5577 112.789C57.7165 113.09 52.1975 107.627 52.2669 98.2164C52.4023 89.2665 57.6091 82.6137 65.3539 82.8216C72.8905 83.0244 76.9224 89.1062 76.8004 97.1882V97.1882ZM60.4139 97.8371C60.2662 102.987 61.8172 106.651 64.8576 106.562C67.7878 106.476 69.2537 103.173 69.3337 97.7609C69.4076 92.8679 68.3199 89.0732 65.1211 89.0339C61.9448 88.9964 60.4884 92.9167 60.4139 97.8371Z" fill="url(#paint0_linear_318_70)"/>
</g>
<path id="Vector_4" d="M45.6148 75.706C45.4531 86.3979 38.7754 91.9542 31.34 91.9256C23.2394 91.8948 16.7457 85.6751 16.9001 75.4629C17.0467 65.7532 23.1554 58.836 32.2307 59.5145C41.038 60.1712 45.7469 66.9774 45.6148 75.706ZM26.3838 75.501C26.2993 81.0786 28.1222 85.1328 31.683 85.1989C35.11 85.2622 36.8182 81.766 36.9066 75.9145C36.9866 70.6237 35.6315 66.4508 31.8894 66.2261C28.2481 66.0048 26.4644 70.1671 26.3838 75.4987V75.501ZM33.8992 109.872L59.6995 63.0958C59.941 62.6575 60.3031 62.2978 60.7428 62.0594C61.1824 61.821 61.6812 61.7141 62.1798 61.7512V61.7512C64.072 61.8929 65.186 63.9441 64.2763 65.612L38.7625 112.376C38.5471 112.771 38.2337 113.103 37.8525 113.341C37.4713 113.579 37.0353 113.715 36.5865 113.734L36.3012 113.747C34.2646 113.839 32.915 111.66 33.8992 109.872ZM78.0448 96.6908C77.8954 106.593 72.1632 112.012 65.8021 112.291C58.9609 112.592 53.4419 107.13 53.5112 97.7189C53.6466 88.7684 58.8535 82.1156 66.5982 82.3241C74.1366 82.5269 78.1684 88.6082 78.0448 96.6908ZM61.6583 97.3401C61.5106 102.49 63.0616 106.154 66.102 106.065C69.0321 105.979 70.498 102.676 70.5781 97.2639C70.6519 92.371 69.5642 88.5762 66.3655 88.5376C63.1908 88.4984 61.7344 92.4186 61.66 97.3401H61.6583Z" fill="white"/>
<g id="Vector_5" style="mix-blend-mode:soft-light" opacity="0.35">
<path d="M61.1475 145.057L15.2115 150.819C8.93207 151.607 3.73029 147.29 3.73029 141.239V45.9551C3.73029 42.5626 5.1134 39.3041 7.62561 36.9038L25.5065 19.785C22.1231 30.6729 23.0553 38.6233 24.9436 44.2323C30.9192 61.9859 48.3503 62.9266 52.8594 80.8852C56.4996 95.3852 46.9336 101.986 48.2121 118.003C48.8203 125.644 51.8769 135.018 61.1475 145.057Z" fill="white"/>
</g>
</g>
<g id="bag-card-center">
<path id="Vector_6" d="M35.9056 125.015C35.7988 125.015 35.6959 124.975 35.617 124.903C35.538 124.831 35.4887 124.732 35.4787 124.626C35.1022 120.672 33.8147 116.915 31.8536 114.048C30.1191 111.507 28.0489 109.992 26.3195 109.992H26.3139C20.0194 110.004 18.7045 124.476 18.69 124.622C18.6862 124.679 18.6711 124.735 18.6456 124.786C18.62 124.837 18.5845 124.883 18.5411 124.92C18.4977 124.957 18.4474 124.986 18.393 125.003C18.3386 125.021 18.2812 125.027 18.2243 125.022C18.1673 125.017 18.1119 125.001 18.0613 124.974C18.0107 124.948 17.9659 124.911 17.9296 124.867C17.8932 124.823 17.866 124.772 17.8496 124.717C17.8332 124.662 17.8278 124.605 17.8339 124.548C17.8899 123.919 19.2355 109.145 26.3122 109.131H26.32C28.3617 109.131 30.6367 110.745 32.5625 113.561C34.6047 116.547 35.9442 120.448 36.3342 124.543C36.3448 124.656 36.31 124.77 36.2374 124.858C36.1649 124.946 36.0604 125.001 35.947 125.012C35.933 125.015 35.9196 125.015 35.9056 125.015Z" fill="url(#paint1_linear_318_70)"/>
<path id="Vector_7" d="M9.68238 154.799L17.9688 159.001L22.9887 143.572L14.7163 122.889L12.3703 123.465L8.81122 153.17C8.77197 153.498 8.83451 153.83 8.99035 154.122C9.14619 154.413 9.38779 154.65 9.68238 154.799V154.799Z" fill="url(#paint2_linear_318_70)"/>
<path id="Vector_8" style="mix-blend-mode:multiply" opacity="0.52" d="M22.9887 143.572L14.7163 122.889L13.3326 123.229C13.1746 125.456 13.182 127.692 13.355 129.918C13.91 136.96 15.7514 138.92 14.8595 143.832C14.1176 147.917 12.4973 148.471 12.6388 151.219C12.7933 154.212 14.8769 156.719 17.3566 158.69L17.9682 158.999L22.9887 143.572Z" fill="url(#paint3_linear_318_70)"/>
<path id="Vector_9" d="M14.7163 122.889H45.6121L55.8372 155.944L17.9682 159L14.7163 122.889Z" fill="url(#paint4_linear_318_70)"/>
<path id="Vector_10" d="M24.2873 125.722C24.1905 125.722 24.0966 125.689 24.0207 125.629C23.9449 125.569 23.8915 125.485 23.8693 125.39C23.7815 125.016 21.7516 116.158 24.6141 111.812C25.4343 110.565 26.5807 109.805 28.0204 109.551C35.4194 108.245 39.9749 124.158 40.1652 124.836C40.196 124.946 40.182 125.064 40.1263 125.163C40.0705 125.263 39.9775 125.336 39.8678 125.367C39.758 125.398 39.6405 125.384 39.5411 125.328C39.4417 125.272 39.3685 125.179 39.3376 125.069C39.2929 124.911 34.8089 109.225 28.1698 110.399C26.9545 110.613 26.0263 111.23 25.3314 112.285C22.6709 116.326 24.6857 125.105 24.7064 125.194C24.7213 125.257 24.7216 125.323 24.7075 125.386C24.6934 125.45 24.6651 125.509 24.6247 125.56C24.5844 125.611 24.5331 125.652 24.4746 125.68C24.4162 125.708 24.3521 125.722 24.2873 125.722V125.722Z" fill="url(#paint5_linear_318_70)"/>
<path id="Vector_11" d="M25.1396 126.638C25.6087 126.168 25.6087 125.407 25.1396 124.937C24.6705 124.467 23.9099 124.467 23.4407 124.937C22.9716 125.407 22.9716 126.168 23.4407 126.638C23.9099 127.108 24.6705 127.108 25.1396 126.638Z" fill="url(#paint6_linear_318_70)"/>
<path id="Vector_12" d="M41.1189 125.945C41.2713 125.298 40.8714 124.65 40.2257 124.498C39.58 124.345 38.933 124.746 38.7806 125.392C38.6282 126.039 39.0281 126.687 39.6738 126.839C40.3195 126.992 40.9665 126.591 41.1189 125.945Z" fill="url(#paint7_linear_318_70)"/>
<g id="Vector_13" style="mix-blend-mode:multiply" opacity="0.3">
<path d="M45.612 122.889H30.2853C29.5294 123.659 28.9928 124.547 28.9424 125.542C28.7019 130.219 39.4383 131.755 40.474 138.165C41.2209 142.789 36.6245 148.124 32.5239 150.501C28.2033 153.006 25.2754 151.737 22.3531 154.517C21.0695 155.739 20.2873 157.267 19.8224 158.85L55.8382 155.944L45.612 122.889Z" fill="#FE7471"/>
</g>
</g>
<g id="people-card-center">
<path id="Vector_14" d="M84.703 140.693L85.5903 152.067C85.6024 152.222 85.5823 152.378 85.5313 152.525C85.4804 152.671 85.3997 152.806 85.2943 152.92C85.1889 153.034 85.0611 153.125 84.9189 153.187C84.7767 153.25 84.6232 153.282 84.468 153.282H71.767C70.6631 153.282 70.2188 151.855 71.1275 151.227L76.5027 147.51C76.6556 147.405 76.78 147.263 76.8647 147.097C76.9495 146.932 76.992 146.748 76.9884 146.562L76.8664 140.046C76.8634 139.883 76.8955 139.722 76.9606 139.573C77.0257 139.424 77.1221 139.291 77.2434 139.183C77.3646 139.075 77.5077 138.995 77.663 138.947C77.8182 138.9 77.9818 138.886 78.1427 138.908L83.7322 139.665C83.987 139.699 84.2223 139.82 84.3989 140.007C84.5755 140.195 84.6828 140.437 84.703 140.693V140.693Z" fill="#444B8C"/>
<path id="Vector_15" d="M110.857 134.966L114.92 144.867C115.006 145.075 115.023 145.306 114.969 145.525C114.916 145.744 114.794 145.94 114.622 146.086L105.375 153.883C104.625 154.516 103.492 153.88 103.641 152.909L104.913 144.564C104.938 144.404 104.925 144.24 104.877 144.086L102.89 137.721C102.808 137.456 102.832 137.169 102.957 136.922C103.083 136.674 103.3 136.486 103.562 136.396L109.531 134.363C109.787 134.276 110.067 134.29 110.313 134.401C110.559 134.513 110.754 134.715 110.857 134.966V134.966Z" fill="#444B8C"/>
<path id="Vector_16" d="M89.2652 68.9351C89.0812 69.485 88.9335 70.0465 88.8232 70.6159C88.5899 71.7863 88.3873 73.2795 88.2167 75.0376C87.6611 80.7816 87.4272 89.3152 87.364 98.38C87.2314 118.794 88.0024 141.895 88.0024 141.895L84.793 141.845L76.8972 141.725L74.1052 141.681C69.8759 109.345 71.0799 82.0372 71.7178 72.5281C71.7368 72.1992 71.762 71.8956 71.7737 71.611C71.9069 69.8651 71.9975 68.9351 71.9975 68.9351H89.2652Z" fill="#40B6E2"/>
<path id="Vector_17" d="M113.478 137.045L111.873 137.444L103.459 139.55L98.3176 140.839C98.3176 140.839 92.2278 118.212 87.364 98.38C85.0269 88.8155 82.9679 79.9025 82.0201 74.4936C81.6917 72.5836 81.4958 71.1095 81.4706 70.1985L88.8232 70.6159L98.1111 71.1476C98.1111 71.1476 98.3388 72.4822 98.7825 74.8796C100.547 84.4397 105.733 110.907 113.478 137.045Z" fill="#40B6E2"/>
<path id="Vector_18" d="M75.297 110.107C73.003 110.107 71.541 109.536 71.4593 109.504L71.6937 108.916C71.7183 108.927 74.2955 109.925 77.9379 109.216L78.0593 109.837C77.1493 110.016 76.2243 110.106 75.297 110.107V110.107Z" fill="#687375"/>
<path id="Vector_19" d="M93.5846 109.665C92.6456 109.662 91.7086 109.579 90.7837 109.417L90.9012 108.795C90.9448 108.803 95.2167 109.595 97.189 108.215L97.551 108.732C96.4997 109.469 94.942 109.665 93.5846 109.665Z" fill="#687375"/>
<path id="Vector_20" d="M104.928 144.364C105.182 144.777 105.579 145.149 106.072 145.222L106.063 145.278C105.686 145.212 105.366 144.971 105.129 144.679C105.05 144.583 104.979 144.479 104.918 144.37L104.928 144.365V144.364Z" fill="white"/>
<path id="Vector_21" d="M104.796 145.363C104.954 145.686 105.195 146.036 105.565 146.116L105.554 146.172C105.266 146.102 105.06 145.866 104.914 145.622C104.865 145.541 104.822 145.456 104.786 145.369L104.796 145.365V145.363Z" fill="white"/>
<path id="Vector_22" d="M104.624 146.487C104.727 146.717 104.874 146.988 105.134 147.057L105.121 147.113C104.914 147.052 104.786 146.862 104.693 146.68C104.663 146.619 104.636 146.556 104.614 146.492L104.624 146.488V146.487Z" fill="white"/>
<path id="Vector_23" d="M104.438 147.487C104.516 147.672 104.627 147.888 104.833 147.948L104.827 147.97C104.615 147.905 104.504 147.683 104.427 147.491L104.438 147.487V147.487Z" fill="white"/>
<path id="Vector_24" d="M75.9466 147.893C76.0338 148.104 76.1525 148.356 76.3858 148.428L76.3774 148.463C76.134 148.381 76.0193 148.119 75.9354 147.896L75.9466 147.893V147.893Z" fill="white"/>
<path id="Vector_25" d="M76.6868 147.352C76.8429 147.612 77.0869 147.853 77.3963 147.899L77.3879 147.955C77.1479 147.909 76.9492 147.748 76.8043 147.558C76.7564 147.495 76.7137 147.428 76.6768 147.358L76.6868 147.353V147.352Z" fill="white"/>
<path id="Vector_26" d="M74.5623 148.847C74.6015 148.95 74.6535 149.081 74.7632 149.12L74.757 149.142C74.6379 149.096 74.5892 148.961 74.5517 148.851L74.5623 148.847Z" fill="white"/>
<path id="Vector_27" d="M75.2008 148.416C75.2606 148.575 75.3339 148.773 75.504 148.838L75.4984 148.86C75.3199 148.791 75.2483 148.586 75.1901 148.419L75.2008 148.416Z" fill="white"/>
<path id="Vector_28" d="M79.9991 34.3574C79.9991 34.3574 69.1558 35.7279 66.4186 47.9576L69.6823 62.507L68.208 72.2066C68.208 72.2066 82.9472 73.6829 98.1072 71.1521L93.5013 46.4292L79.9991 34.3574Z" fill="#FE7471"/>
<path id="Vector_29" d="M86.7374 65.3526C86.7374 65.3526 83.4737 62.954 87.7372 52.437L90.5795 62.796L86.7374 65.3526Z" fill="#6E3620"/>
<path id="Vector_30" d="M61.937 31.6832L61.6214 30.2825L59.775 29.9256C59.5745 29.8869 59.367 29.9132 59.1825 30.0006C58.9979 30.0881 58.846 30.2321 58.7489 30.4119C57.6919 32.3662 54.8121 38.7265 57.5017 45.9367C57.5706 46.1216 57.6946 46.2807 57.857 46.3925C58.0194 46.5043 58.2122 46.5633 58.4092 46.5614C58.919 46.5507 59.4278 46.5099 59.9328 46.4393L61.937 31.6832Z" fill="url(#paint8_linear_318_70)"/>
<path id="Vector_31" d="M76.4596 41.4684L78.2321 45.5546C78.2321 45.5546 78.9002 46.6331 79.0026 47.1547C79.782 47.4242 80.9956 46.99 80.9956 46.99L80.318 41.4903L76.5732 41.3749L76.4596 41.4684Z" fill="url(#paint9_linear_318_70)"/>
<path id="Vector_32" d="M82.9791 38.1673C82.9791 38.1673 67.8079 35.488 61.6214 30.2847C56.259 36.5038 59.935 46.4415 59.935 46.4415C59.935 46.4415 76.0658 41.8982 82.6624 42.3728C83.9857 40.9894 82.9791 38.1673 82.9791 38.1673Z" fill="url(#paint10_linear_318_70)"/>
<path id="Vector_33" d="M54.4524 49.5029C54.596 49.3102 54.6854 49.0824 54.7113 48.8434C54.7372 48.6043 54.6986 48.3627 54.5995 48.1436C48.8488 35.4107 55.6223 28.2346 55.6894 28.1657C55.8126 28.0392 55.9096 27.8896 55.975 27.7255C56.0405 27.5614 56.0729 27.3859 56.0707 27.2093C56.0684 27.0326 56.0314 26.8581 55.9617 26.6957C55.8921 26.5334 55.7912 26.3863 55.6648 26.263C55.5384 26.1397 55.389 26.0425 55.2252 25.977C55.0613 25.9115 54.8861 25.879 54.7097 25.8813C54.5332 25.8836 54.359 25.9206 54.1968 25.9904C54.0347 26.0601 53.8879 26.1611 53.7647 26.2877C53.429 26.6317 45.6518 34.865 52.1511 49.2524C52.2472 49.4659 52.3973 49.6506 52.5866 49.7881C52.7758 49.9257 52.9977 50.0113 53.2302 50.0366C53.4627 50.0619 53.6978 50.026 53.9121 49.9324C54.1265 49.8387 54.3127 49.6907 54.4524 49.5029V49.5029Z" fill="url(#paint11_linear_318_70)"/>
<path id="Vector_34" d="M89.4739 61.9259L89.1516 61.7489L84.9637 59.4842L77.9457 55.6827C77.8198 54.835 77.9144 54.114 78.4196 53.6204L78.0721 53.4808C77.7905 53.3618 77.5428 53.1747 77.351 52.9364C77.1592 52.698 77.0295 52.4158 76.9733 52.1149L76.9604 52.0387C76.7774 51.4252 76.8658 50.8559 76.9229 50.5394L77.0868 50.3242C77.4975 49.7869 77.6805 49.5146 78.2115 49.0916L77.3162 49.142C77.3162 49.142 75.1056 49.7494 76.1351 48.3263C76.8429 47.3391 78.4291 46.5042 79.3316 46.0851C79.5178 45.9973 79.7266 45.9696 79.9292 46.0058C80.1318 46.0421 80.3181 46.1405 80.4624 46.2874C83.5005 49.444 88.8444 53.227 88.8444 53.227L88.9004 53.9985L89.4179 61.1023L89.4739 61.9259Z" fill="#F9B384"/>
<path id="Vector_35" d="M81.1926 49.8385L79.2807 48.9033C79.0825 48.8054 78.8582 48.7734 78.6406 48.812L76.6045 49.1667L76.5486 48.8552L78.5847 48.5005C78.868 48.4507 79.1599 48.4921 79.4183 48.6187L81.3302 49.5538L81.1926 49.8385Z" fill="#E28B6D"/>
<path id="Vector_36" d="M80.8373 51.6358L78.5433 50.7567C78.4415 50.7174 78.3334 50.6973 78.2243 50.6973H76.9201V50.3813H78.2255C78.3731 50.3813 78.5195 50.4082 78.6574 50.4609L80.9514 51.3411L80.8373 51.6358Z" fill="#E28B6D"/>
<path id="Vector_37" d="M80.5217 53.4288L78.4398 52.641C78.2749 52.5785 78.0974 52.5564 77.9222 52.5766L77.0695 52.6735L77.0331 52.3592L77.8864 52.2623C78.1116 52.2369 78.3396 52.2654 78.5517 52.3452L80.6336 53.133L80.5217 53.4288Z" fill="#E28B6D"/>
<path id="Vector_38" d="M89.4169 61.104L89.1517 61.7495L84.9637 59.4848L87.7366 52.4376L88.8988 54.0002L89.4169 61.104Z" fill="#E28B6D"/>
<path id="Vector_39" d="M86.7373 65.3526C86.7373 65.3526 93.0038 71.3095 98.1072 71.1509L96.6328 64.1401L86.7373 65.3526Z" fill="#BA5C36"/>
<path id="Vector_40" d="M79.9991 34.3573C79.9991 34.3573 80.7707 34.2772 82.0565 34.3209C94.7015 34.754 104.387 45.6492 103.77 58.3042C103.515 63.5356 102.158 68.7288 97.7911 68.833L86.7374 65.3537C87.7797 61.4384 88.558 57.3781 87.7372 52.4381L92.8696 54.8899L79.9991 34.3573Z" fill="#FE7471"/>
<path id="Vector_41" opacity="0.3" d="M69.4562 57.4969C69.4562 57.4969 69.431 61.773 67.7318 63.9368L66.178 59.1543L69.4562 57.4969Z" fill="#1F3C88"/>
<path id="Vector_42" d="M61.9627 57.1642C62.4494 55.5903 63.3363 54.1387 64.3126 52.8276C64.6226 52.4108 65.2979 51.3854 65.9458 51.539C67.2618 51.8555 65.9458 54.1723 65.9458 54.1723C65.9458 54.1723 67.2092 52.2746 67.6803 53.2237C68.1514 54.1728 67.4699 55.2267 67.4699 55.2267C67.4699 55.2267 69.4702 53.9089 68.7333 56.5445C68.7333 56.5445 70.3649 56.3338 69.365 58.1262C68.6511 59.4053 68.19 60.8312 67.2948 62.0067C66.394 63.1905 64.7009 63.8556 63.2949 63.1799C61.6415 62.3865 61.4294 60.2664 61.6337 58.6562C61.7002 58.1503 61.8103 57.6511 61.9627 57.1642Z" fill="#F9B384"/>
<path id="Vector_43" d="M64.7994 56.7467C64.7775 56.7466 64.7558 56.742 64.7356 56.7332C64.7167 56.7248 64.6996 56.7128 64.6852 56.6978C64.6709 56.6828 64.6597 56.6651 64.6522 56.6457C64.6448 56.6264 64.6412 56.6057 64.6416 56.585C64.6421 56.5642 64.6467 56.5438 64.6551 56.5248L66.1551 53.1267C66.1721 53.0884 66.2036 53.0584 66.2427 53.0433C66.2818 53.0282 66.3253 53.0293 66.3636 53.0463C66.4018 53.0633 66.4318 53.0949 66.4469 53.134C66.4619 53.1732 66.4608 53.2167 66.4438 53.255L64.9438 56.6548C64.931 56.6823 64.9107 56.7056 64.8851 56.7219C64.8595 56.7382 64.8298 56.7468 64.7994 56.7467V56.7467Z" fill="#E28B6D"/>
<path id="Vector_44" d="M66.3392 58.0123C66.3128 58.0122 66.2868 58.0054 66.2637 57.9926C66.2405 57.9799 66.221 57.9615 66.2067 57.9393C66.1925 57.917 66.1841 57.8915 66.1822 57.8651C66.1803 57.8387 66.185 57.8123 66.1959 57.7882L67.6171 54.7442C67.6351 54.7066 67.6672 54.6775 67.7065 54.6633C67.7457 54.649 67.7889 54.6507 67.8269 54.668C67.8457 54.6768 67.8626 54.6891 67.8767 54.7044C67.8907 54.7197 67.9016 54.7377 67.9088 54.7572C67.9159 54.7767 67.9191 54.7974 67.9182 54.8182C67.9173 54.8389 67.9123 54.8593 67.9036 54.8781L66.4818 57.9227C66.469 57.9497 66.4488 57.9724 66.4235 57.9883C66.3982 58.0041 66.369 58.0125 66.3392 58.0123Z" fill="#E28B6D"/>
<path id="Vector_45" d="M67.5259 59.0399C67.5001 59.0397 67.4748 59.0334 67.452 59.0214C67.4337 59.0117 67.4174 58.9985 67.4042 58.9826C67.391 58.9666 67.381 58.9482 67.3749 58.9284C67.3687 58.9085 67.3666 58.8877 67.3685 58.867C67.3704 58.8464 67.3763 58.8263 67.386 58.8079L68.6097 56.4755C68.6193 56.4571 68.6324 56.4408 68.6484 56.4275C68.6643 56.4142 68.6827 56.4041 68.7025 56.3979C68.7223 56.3917 68.7431 56.3895 68.7637 56.3914C68.7844 56.3933 68.8045 56.3992 68.8228 56.4088C68.8412 56.4184 68.8575 56.4316 68.8708 56.4476C68.8841 56.4635 68.8941 56.4819 68.9003 56.5017C68.9065 56.5216 68.9087 56.5424 68.9068 56.5631C68.905 56.5838 68.8991 56.6039 68.8894 56.6223L67.663 58.9536C67.6501 58.9791 67.6305 59.0006 67.6064 59.0158C67.5822 59.031 67.5544 59.0393 67.5259 59.0399V59.0399Z" fill="#E28B6D"/>
<path id="Vector_46" d="M79.8492 40.5345C78.2104 40.5345 77.1328 39.7226 77.1171 39.7097C77.0915 39.6911 77.0699 39.6675 77.0535 39.6404C77.0372 39.6133 77.0265 39.5832 77.022 39.5518C77.0174 39.5204 77.0192 39.4885 77.0273 39.4579C77.0353 39.4272 77.0494 39.3985 77.0687 39.3734C77.088 39.3483 77.1121 39.3273 77.1397 39.3117C77.1672 39.2961 77.1976 39.2862 77.229 39.2826C77.2605 39.2789 77.2923 39.2816 77.3226 39.2905C77.353 39.2994 77.3813 39.3143 77.4058 39.3344C77.4965 39.4027 79.6399 41 82.5091 39.2666C82.5629 39.2342 82.6274 39.2245 82.6883 39.2397C82.7492 39.2549 82.8016 39.2937 82.8339 39.3475C82.8663 39.4014 82.8759 39.4659 82.8608 39.5269C82.8456 39.5879 82.8069 39.6404 82.7531 39.6728C81.6816 40.3199 80.6913 40.5345 79.8492 40.5345Z" fill="#BA5C36"/>
<path id="Vector_47" d="M86.7374 65.5897C86.7147 65.5895 86.6921 65.5863 86.6702 65.5801C86.61 65.5621 86.5593 65.5209 86.5293 65.4656C86.4994 65.4102 86.4925 65.3453 86.5102 65.2849C88.7813 57.5833 87.5212 52.5475 87.5084 52.497L87.416 52.1429L97.1986 53.7846C97.2605 53.795 97.3158 53.8296 97.3523 53.8808C97.3887 53.932 97.4034 53.9957 97.393 54.0577C97.3826 54.1197 97.348 54.1751 97.2969 54.2116C97.2457 54.2481 97.1822 54.2628 97.1202 54.2524L88.041 52.729C88.2838 54.0176 88.9306 58.752 86.9645 65.4199C86.95 65.469 86.9201 65.512 86.8791 65.5426C86.8382 65.5732 86.7884 65.5897 86.7374 65.5897V65.5897Z" fill="#BA5C36"/>
<path id="Vector_48" d="M93.8957 53.6231H93.8818C93.8505 53.6215 93.8199 53.6136 93.7917 53.6001C93.7635 53.5865 93.7383 53.5675 93.7174 53.5441C93.6966 53.5207 93.6806 53.4934 93.6704 53.4638C93.6602 53.4342 93.656 53.4028 93.6579 53.3715C93.6607 53.3206 93.9226 48.217 90.3814 42.9761C90.361 42.9505 90.3461 42.9209 90.3377 42.8893C90.3292 42.8576 90.3274 42.8246 90.3323 42.7922C90.3372 42.7598 90.3488 42.7288 90.3662 42.701C90.3837 42.6733 90.4067 42.6496 90.4338 42.6312C90.4609 42.6128 90.4915 42.6003 90.5237 42.5943C90.5559 42.5883 90.5889 42.5891 90.6208 42.5966C90.6526 42.604 90.6826 42.618 90.7088 42.6376C90.735 42.6572 90.7569 42.682 90.7731 42.7105C94.4099 48.092 94.133 53.348 94.1302 53.4007C94.1262 53.4605 94.0999 53.5166 94.0565 53.5579C94.013 53.5991 93.9556 53.6224 93.8957 53.6231V53.6231Z" fill="#BA5C36"/>
<path id="Vector_49" d="M84.3415 28.5338V34.6409C84.3415 36.6102 82.8084 38.2065 80.9162 38.2065C79.0239 38.2065 77.4914 36.6102 77.4914 34.6409V28.5338H84.3415Z" fill="#F9B384"/>
<path id="Vector_50" d="M81.1042 29.3479C81.1042 29.3479 80.7489 33.1198 77.4914 34.2112V28.8527L81.1042 29.3479Z" fill="#102048"/>
<path id="Vector_51" d="M74.9059 21.5752C74.9059 21.5752 73.8428 30.1379 77.1764 31.156C80.51 32.174 83.5549 29.2208 83.5549 29.2208L82.9271 22.1579L77.9995 19.2551L74.9059 21.5752Z" fill="#F9B384"/>
<path id="Vector_52" d="M93.8705 38.2166L87.2946 38.6531C86.4626 37.7359 85.992 36.4467 85.6838 34.9905C85.404 36.4887 85.6278 37.7359 86.3596 38.7164L84.5787 38.8368C82.9992 36.4708 81.6726 31.2333 83.2392 26.7544L83.4228 25.6983C83.4228 25.6983 82.297 22.2884 80.6683 22.1433C80.6683 22.1433 75.0782 25.9201 72.5895 21.7068C70.7324 18.5693 72.2985 14.4451 76.7646 17.4879C76.7646 17.4879 87.4966 12.4454 87.4714 22.7826C87.4652 24.636 88.1602 26.4575 89.531 27.6974C89.6476 27.8134 89.7721 27.9212 89.9036 28.0201C92.3123 29.9312 94.9062 33.7411 93.8705 38.2166Z" fill="#102048"/>
<path id="Vector_53" d="M85.105 26.2457C85.4225 25.2591 84.9965 24.2388 84.1536 23.9668C83.3106 23.6948 82.3699 24.2741 82.0525 25.2608C81.735 26.2474 82.1609 27.2678 83.0039 27.5397C83.8468 27.8117 84.7875 27.2324 85.105 26.2457Z" fill="#F9B384"/>
<path id="Vector_54" d="M83.3679 26.3454C83.3261 26.3454 83.2859 26.3287 83.2564 26.2991C83.2268 26.2695 83.2101 26.2293 83.2101 26.1874C83.2101 25.505 83.7484 24.9016 84.3851 24.8696H84.393C84.4348 24.8686 84.4754 24.8842 84.5057 24.9131C84.536 24.942 84.5536 24.9818 84.5547 25.0237C84.5557 25.0656 84.5401 25.1062 84.5112 25.1366C84.4824 25.1669 84.4426 25.1846 84.4008 25.1856C83.9778 25.2069 83.5246 25.6142 83.5246 26.1874C83.5246 26.2291 83.5081 26.2691 83.4788 26.2987C83.4494 26.3283 83.4096 26.3451 83.3679 26.3454Z" fill="#102048"/>
<path id="Vector_55" d="M76.0775 24.8411C76.0775 24.9193 76.0543 24.9958 76.0109 25.0608C75.9675 25.1259 75.9058 25.1766 75.8337 25.2065C75.7615 25.2364 75.682 25.2443 75.6054 25.229C75.5288 25.2138 75.4584 25.1761 75.4032 25.1208C75.3479 25.0654 75.3103 24.995 75.2951 24.9182C75.2798 24.8415 75.2876 24.762 75.3175 24.6897C75.3474 24.6174 75.3981 24.5556 75.463 24.5122C75.528 24.4687 75.6044 24.4455 75.6825 24.4455C75.7873 24.4455 75.8877 24.4872 75.9618 24.5614C76.0359 24.6355 76.0775 24.7361 76.0775 24.8411V24.8411Z" fill="#102048"/>
<path id="Vector_56" d="M78.4593 24.6432C78.4593 24.7215 78.4362 24.798 78.3928 24.863C78.3494 24.9281 78.2877 24.9788 78.2155 25.0087C78.1433 25.0386 78.0639 25.0465 77.9873 25.0312C77.9106 25.0159 77.8403 24.9783 77.785 24.9229C77.7298 24.8676 77.6921 24.7971 77.6769 24.7204C77.6617 24.6437 77.6695 24.5641 77.6994 24.4919C77.7293 24.4196 77.7799 24.3578 77.8449 24.3143C77.9098 24.2709 77.9862 24.2477 78.0643 24.2477C78.1691 24.2477 78.2696 24.2894 78.3436 24.3635C78.4177 24.4377 78.4593 24.5383 78.4593 24.6432V24.6432Z" fill="#102048"/>
<path id="Vector_57" d="M76.9626 28.6285C76.8878 28.6295 76.813 28.6248 76.7388 28.6145C76.7184 28.6113 76.6988 28.6041 76.6812 28.5933C76.6636 28.5824 76.6482 28.5682 76.6361 28.5515C76.624 28.5347 76.6153 28.5157 76.6106 28.4955C76.6058 28.4754 76.6051 28.4545 76.6085 28.4341C76.6162 28.3935 76.6391 28.3573 76.6724 28.3329C76.7057 28.3085 76.747 28.2976 76.7881 28.3024C77.0603 28.3257 77.3345 28.2937 77.594 28.2083C77.8536 28.1229 78.0933 27.9859 78.2987 27.8055C78.3303 27.778 78.3715 27.7642 78.4133 27.7671C78.4551 27.7701 78.494 27.7895 78.5214 27.8211C78.5489 27.8528 78.5626 27.8941 78.5597 27.9359C78.5568 27.9777 78.5374 28.0166 78.5057 28.0441C78.079 28.4196 77.5307 28.6273 76.9626 28.6285V28.6285Z" fill="#102048"/>
<path id="Vector_58" d="M76.8765 25.4254L76.8955 26.1812V26.1936C76.7657 26.314 76.5162 26.5252 76.566 26.7202C76.5825 26.7509 76.6057 26.7774 76.6339 26.7979C76.6621 26.8184 76.6945 26.8322 76.7288 26.8384L76.7237 26.8564C76.6857 26.8508 76.6494 26.8366 76.6177 26.8149C76.586 26.7931 76.5597 26.7644 76.5408 26.7309C76.4742 26.523 76.7148 26.2955 76.8491 26.1599L76.839 26.1812L76.858 25.4254H76.8765Z" fill="#102048"/>
</g>
</g>
<defs>
<linearGradient id="paint0_linear_318_70" x1="14.9375" y1="87.2471" x2="76.3961" y2="88.4746" gradientUnits="userSpaceOnUse">
<stop stop-color="#FF9085"/>
<stop offset="1" stop-color="#FB6FBB"/>
</linearGradient>
<linearGradient id="paint1_linear_318_70" x1="15.8174" y1="114.537" x2="19.5792" y2="115.932" gradientUnits="userSpaceOnUse">
<stop stop-color="#AB316D"/>
<stop offset="1" stop-color="#792D3D"/>
</linearGradient>
<linearGradient id="paint2_linear_318_70" x1="5.28517" y1="127.478" x2="15.781" y2="145.054" gradientUnits="userSpaceOnUse">
<stop stop-color="#FF9085"/>
<stop offset="1" stop-color="#FB6FBB"/>
</linearGradient>
<linearGradient id="paint3_linear_318_70" x1="6.90495" y1="126.51" x2="17.4002" y2="144.086" gradientUnits="userSpaceOnUse">
<stop stop-color="#FF9085"/>
<stop offset="1" stop-color="#FB6FBB"/>
</linearGradient>
<linearGradient id="paint4_linear_318_70" x1="23.5191" y1="134.563" x2="53.0384" y2="157.277" gradientUnits="userSpaceOnUse">
<stop stop-color="#FF9085"/>
<stop offset="1" stop-color="#FB6FBB"/>
</linearGradient>
<linearGradient id="paint5_linear_318_70" x1="29.314" y1="108.048" x2="32.33" y2="127.249" gradientUnits="userSpaceOnUse">
<stop stop-color="#AB316D"/>
<stop offset="1" stop-color="#792D3D"/>
</linearGradient>
<linearGradient id="paint6_linear_318_70" x1="22.67" y1="125.185" x2="23.1541" y2="125.364" gradientUnits="userSpaceOnUse">
<stop stop-color="#AB316D"/>
<stop offset="1" stop-color="#792D3D"/>
</linearGradient>
<linearGradient id="paint7_linear_318_70" x1="38.3229" y1="125.071" x2="38.8071" y2="125.25" gradientUnits="userSpaceOnUse">
<stop stop-color="#AB316D"/>
<stop offset="1" stop-color="#792D3D"/>
</linearGradient>
<linearGradient id="paint8_linear_318_70" x1="52.8089" y1="37.0368" x2="66.7394" y2="40.0891" gradientUnits="userSpaceOnUse">
<stop stop-color="#AB316D"/>
<stop offset="1" stop-color="#792D3D"/>
</linearGradient>
<linearGradient id="paint9_linear_318_70" x1="72.2411" y1="42.9592" x2="86.9471" y2="46.1816" gradientUnits="userSpaceOnUse">
<stop stop-color="#AB316D"/>
<stop offset="1" stop-color="#792D3D"/>
</linearGradient>
<linearGradient id="paint10_linear_318_70" x1="62.8115" y1="30.4762" x2="89.1286" y2="65.1641" gradientUnits="userSpaceOnUse">
<stop stop-color="#444B8C"/>
<stop offset="1" stop-color="#26264F"/>
</linearGradient>
<linearGradient id="paint11_linear_318_70" x1="56.7276" y1="37.6496" x2="49.6654" y2="38.0022" gradientUnits="userSpaceOnUse">
<stop stop-color="#AB316D"/>
<stop offset="1" stop-color="#792D3D"/>
</linearGradient>
</defs>
</svg>
