<svg width="130" height="147" viewBox="0 0 130 147" fill="none" xmlns="http://www.w3.org/2000/svg">
<g id="object-card-left">
<g id="kalkulator">
<path id="Vector" d="M123.306 0H31.6821C28.5114 0 25.941 2.57038 25.941 5.74111V139.665C25.941 142.835 28.5114 145.406 31.6821 145.406H123.306C126.477 145.406 129.047 142.835 129.047 139.665V5.74111C129.047 2.57038 126.477 0 123.306 0Z" fill="#D8D8D8"/>
<path id="Vector_2" d="M94.2382 6.39771H60.7497C59.962 6.39771 59.3235 7.03626 59.3235 7.82396V11.0723C59.3235 11.86 59.962 12.4986 60.7497 12.4986H94.2382C95.0259 12.4986 95.6645 11.86 95.6645 11.0723V7.82396C95.6645 7.03626 95.0259 6.39771 94.2382 6.39771Z" fill="#383838"/>
<path id="Vector_3" d="M118.762 21.7979H36.2251V40.1028H118.762V21.7979Z" fill="#383838"/>
<path id="Vector_4" d="M115.151 24.301H39.8379V37.5984H115.151V24.301Z" fill="white"/>
<path id="Vector_5" d="M97.2362 48.5928H91.629C89.9456 48.5928 88.5809 49.9575 88.5809 51.6409V52.9367C88.5809 54.6202 89.9456 55.9848 91.629 55.9848H97.2362C98.9196 55.9848 100.284 54.6202 100.284 52.9367V51.6409C100.284 49.9575 98.9196 48.5928 97.2362 48.5928Z" fill="#383838"/>
<path id="Vector_6" d="M115.715 48.5928H110.107C108.424 48.5928 107.059 49.9575 107.059 51.6409V52.9367C107.059 54.6202 108.424 55.9848 110.107 55.9848H115.715C117.398 55.9848 118.763 54.6202 118.763 52.9367V51.6409C118.763 49.9575 117.398 48.5928 115.715 48.5928Z" fill="#383838"/>
<path id="Vector_7" d="M117.307 64.9172H106.045C105.243 64.9172 104.593 65.5673 104.593 66.3691V73.1162C104.593 73.918 105.243 74.568 106.045 74.568H117.307C118.109 74.568 118.759 73.918 118.759 73.1162V66.3691C118.759 65.5673 118.109 64.9172 117.307 64.9172Z" fill="#383838"/>
<path id="Vector_8" d="M94.7074 64.9172H83.4452C82.6434 64.9172 81.9933 65.5673 81.9933 66.3691V73.1162C81.9933 73.918 82.6434 74.568 83.4452 74.568H94.7074C95.5092 74.568 96.1593 73.918 96.1593 73.1162V66.3691C96.1593 65.5673 95.5092 64.9172 94.7074 64.9172Z" fill="#383838"/>
<path id="Vector_9" d="M72.1062 64.9172H60.844C60.0422 64.9172 59.3922 65.5673 59.3922 66.3691V73.1162C59.3922 73.918 60.0422 74.568 60.844 74.568H72.1062C72.908 74.568 73.5581 73.918 73.5581 73.1162V66.3691C73.5581 65.5673 72.908 64.9172 72.1062 64.9172Z" fill="#383838"/>
<path id="Vector_10" d="M49.505 64.9172H38.2428C37.441 64.9172 36.791 65.5673 36.791 66.3691V73.1162C36.791 73.918 37.441 74.568 38.2428 74.568H49.505C50.3068 74.568 50.9569 73.918 50.9569 73.1162V66.3691C50.9569 65.5673 50.3068 64.9172 49.505 64.9172Z" fill="#383838"/>
<path id="Vector_11" d="M117.307 82.37H106.045C105.243 82.37 104.593 83.02 104.593 83.8219V90.5689C104.593 91.3708 105.243 92.0208 106.045 92.0208H117.307C118.109 92.0208 118.759 91.3708 118.759 90.5689V83.8219C118.759 83.02 118.109 82.37 117.307 82.37Z" fill="#383838"/>
<path id="Vector_12" d="M94.7074 82.37H83.4452C82.6434 82.37 81.9933 83.02 81.9933 83.8219V90.5689C81.9933 91.3708 82.6434 92.0208 83.4452 92.0208H94.7074C95.5092 92.0208 96.1593 91.3708 96.1593 90.5689V83.8219C96.1593 83.02 95.5092 82.37 94.7074 82.37Z" fill="#383838"/>
<path id="Vector_13" d="M72.1062 82.37H60.844C60.0422 82.37 59.3922 83.02 59.3922 83.8219V90.5689C59.3922 91.3708 60.0422 92.0208 60.844 92.0208H72.1062C72.908 92.0208 73.5581 91.3708 73.5581 90.5689V83.8219C73.5581 83.02 72.908 82.37 72.1062 82.37Z" fill="#383838"/>
<path id="Vector_14" d="M49.505 82.37H38.2428C37.441 82.37 36.791 83.02 36.791 83.8219V90.5689C36.791 91.3708 37.441 92.0208 38.2428 92.0208H49.505C50.3068 92.0208 50.9569 91.3708 50.9569 90.5689V83.8219C50.9569 83.02 50.3068 82.37 49.505 82.37Z" fill="#383838"/>
<path id="Vector_15" d="M117.307 99.8226H106.045C105.243 99.8226 104.593 100.473 104.593 101.275V108.022C104.593 108.823 105.243 109.473 106.045 109.473H117.307C118.109 109.473 118.759 108.823 118.759 108.022V101.275C118.759 100.473 118.109 99.8226 117.307 99.8226Z" fill="#383838"/>
<path id="Vector_16" d="M94.7074 99.8226H83.4452C82.6434 99.8226 81.9933 100.473 81.9933 101.275V108.022C81.9933 108.823 82.6434 109.473 83.4452 109.473H94.7074C95.5092 109.473 96.1593 108.823 96.1593 108.022V101.275C96.1593 100.473 95.5092 99.8226 94.7074 99.8226Z" fill="#383838"/>
<path id="Vector_17" d="M72.1062 99.8226H60.844C60.0422 99.8226 59.3922 100.473 59.3922 101.275V108.022C59.3922 108.823 60.0422 109.473 60.844 109.473H72.1062C72.908 109.473 73.5581 108.823 73.5581 108.022V101.275C73.5581 100.473 72.908 99.8226 72.1062 99.8226Z" fill="#383838"/>
<path id="Vector_18" d="M49.505 99.8226H38.2428C37.441 99.8226 36.791 100.473 36.791 101.275V108.022C36.791 108.823 37.441 109.473 38.2428 109.473H49.505C50.3068 109.473 50.9569 108.823 50.9569 108.022V101.275C50.9569 100.473 50.3068 99.8226 49.505 99.8226Z" fill="#383838"/>
<path id="Vector_19" d="M117.307 117.891H106.045C105.243 117.891 104.593 118.541 104.593 119.343V126.09C104.593 126.892 105.243 127.542 106.045 127.542H117.307C118.109 127.542 118.759 126.892 118.759 126.09V119.343C118.759 118.541 118.109 117.891 117.307 117.891Z" fill="#383838"/>
<path id="Vector_20" d="M94.7074 117.891H83.4452C82.6434 117.891 81.9933 118.541 81.9933 119.343V126.09C81.9933 126.892 82.6434 127.542 83.4452 127.542H94.7074C95.5092 127.542 96.1593 126.892 96.1593 126.09V119.343C96.1593 118.541 95.5092 117.891 94.7074 117.891Z" fill="#383838"/>
<path id="Vector_21" d="M72.1062 117.891H60.844C60.0422 117.891 59.3922 118.541 59.3922 119.343V126.09C59.3922 126.892 60.0422 127.542 60.844 127.542H72.1062C72.908 127.542 73.5581 126.892 73.5581 126.09V119.343C73.5581 118.541 72.908 117.891 72.1062 117.891Z" fill="#383838"/>
<path id="Vector_22" d="M49.505 117.891H38.2428C37.441 117.891 36.791 118.541 36.791 119.343V126.09C36.791 126.892 37.441 127.542 38.2428 127.542H49.505C50.3068 127.542 50.9569 126.892 50.9569 126.09V119.343C50.9569 118.541 50.3068 117.891 49.505 117.891Z" fill="#383838"/>
<path id="100" d="M98.7002 28.1648V35.4375H97.8195V29.0881H97.7769L96.0013 30.267V29.3722L97.8195 28.1648H98.7002ZM103.164 35.5369C102.629 35.5369 102.173 35.3913 101.797 35.1001C101.42 34.8066 101.133 34.3816 100.934 33.8253C100.735 33.2666 100.636 32.5919 100.636 31.8011C100.636 31.0152 100.735 30.344 100.934 29.7876C101.135 29.2289 101.424 28.8028 101.8 28.5092C102.179 28.2133 102.634 28.0653 103.164 28.0653C103.694 28.0653 104.148 28.2133 104.524 28.5092C104.903 28.8028 105.192 29.2289 105.391 29.7876C105.592 30.344 105.692 31.0152 105.692 31.8011C105.692 32.5919 105.593 33.2666 105.394 33.8253C105.195 34.3816 104.908 34.8066 104.531 35.1001C104.155 35.3913 103.699 35.5369 103.164 35.5369ZM103.164 34.7557C103.694 34.7557 104.106 34.5 104.4 33.9886C104.693 33.4773 104.84 32.7481 104.84 31.8011C104.84 31.1714 104.773 30.6352 104.638 30.1925C104.505 29.7498 104.313 29.4124 104.062 29.1804C103.814 28.9484 103.514 28.8324 103.164 28.8324C102.638 28.8324 102.228 29.0916 101.932 29.6101C101.636 30.1262 101.488 30.8565 101.488 31.8011C101.488 32.4309 101.554 32.9659 101.687 33.4062C101.819 33.8466 102.01 34.1816 102.258 34.4112C102.509 34.6409 102.811 34.7557 103.164 34.7557ZM109.414 35.5369C108.879 35.5369 108.423 35.3913 108.047 35.1001C107.67 34.8066 107.383 34.3816 107.184 33.8253C106.985 33.2666 106.886 32.5919 106.886 31.8011C106.886 31.0152 106.985 30.344 107.184 29.7876C107.385 29.2289 107.674 28.8028 108.05 28.5092C108.429 28.2133 108.884 28.0653 109.414 28.0653C109.944 28.0653 110.398 28.2133 110.774 28.5092C111.153 28.8028 111.442 29.2289 111.641 29.7876C111.842 30.344 111.942 31.0152 111.942 31.8011C111.942 32.5919 111.843 33.2666 111.644 33.8253C111.445 34.3816 111.158 34.8066 110.781 35.1001C110.405 35.3913 109.949 35.5369 109.414 35.5369ZM109.414 34.7557C109.944 34.7557 110.356 34.5 110.65 33.9886C110.943 33.4773 111.09 32.7481 111.09 31.8011C111.09 31.1714 111.023 30.6352 110.888 30.1925C110.755 29.7498 110.563 29.4124 110.312 29.1804C110.064 28.9484 109.764 28.8324 109.414 28.8324C108.888 28.8324 108.478 29.0916 108.182 29.6101C107.886 30.1262 107.738 30.8565 107.738 31.8011C107.738 32.4309 107.804 32.9659 107.937 33.4062C108.069 33.8466 108.26 34.1816 108.508 34.4112C108.759 34.6409 109.061 34.7557 109.414 34.7557Z" fill="black"/>
</g>
<g id="in-money">
<path id="Vector_23" d="M108.291 62.6435L104.788 73.4003L104.528 74.1955L102.904 79.1904L102.892 79.2253L97.653 79.1089L77.562 78.6548L76.0927 74.4482L75.8447 73.7496L71.956 62.6435C84.0192 66.8209 93.9634 57.6883 108.291 62.6435Z" fill="#D733FF"/>
<path id="Vector_24" opacity="0.4" d="M104.528 74.1955L102.904 79.1903L97.6553 79.11L77.562 78.6548L76.0927 74.4482C83.0004 74.3271 94.8843 74.1699 104.528 74.1955Z" fill="#E49B31"/>
<path id="Vector_25" d="M126.979 134.938C125.973 138.147 123.969 140.952 121.258 142.943C118.548 144.934 115.272 146.007 111.909 146.007H66.3965C63.195 146.005 60.0823 144.954 57.5355 143.014C54.9888 141.074 53.1486 138.352 52.297 135.266C51.3019 131.648 50.7545 127.921 50.667 124.169C50.6612 123.813 50.6553 123.455 50.6553 123.098C50.6553 122.675 50.6612 122.253 50.6728 121.832C51.0442 108.406 57.605 95.9002 68.1371 87.5628L79.0244 78.947L103.94 79.5292L117.636 92.6356C119.575 94.467 121.263 96.5475 122.656 98.8226C125.892 104.195 127.952 110.193 128.699 116.42C129.446 122.648 128.863 128.963 126.99 134.948L126.979 134.938Z" fill="#E26CFF"/>
<path id="Vector_26" d="M86.4526 133.976V129.16C83.0552 129.008 79.7591 128.095 77.8369 126.981L79.3609 121.043C81.4916 122.207 84.4838 123.273 87.7799 123.273C90.6708 123.273 92.6478 122.158 92.6478 120.129C92.6478 118.201 91.0259 116.985 87.2723 115.715C81.8467 113.89 78.1431 111.354 78.1431 106.436C78.1431 101.972 81.2866 98.4744 86.7146 97.4091V92.5901H91.6826V97.054C95.08 97.2065 97.3643 97.9167 99.0362 98.7259L97.5657 104.458C96.2489 103.9 93.9157 102.732 90.2621 102.732C86.966 102.732 85.9007 104.153 85.9007 105.573C85.9007 107.245 87.6763 108.31 91.9876 109.933C98.0198 112.064 100.457 114.851 100.457 119.419C100.457 123.933 97.2607 127.785 91.4299 128.801V133.971L86.4526 133.976Z" fill="white"/>
<path id="Vector_27" d="M108.052 77.1644H72.8071C71.3429 77.1644 70.156 78.3514 70.156 79.8155V80.9425C70.156 82.4067 71.3429 83.5936 72.8071 83.5936H108.052C109.517 83.5936 110.704 82.4067 110.704 80.9425V79.8155C110.704 78.3514 109.517 77.1644 108.052 77.1644Z" fill="#EF1BEA"/>
<path id="Vector_28" opacity="0.4" d="M126.979 134.938C125.973 138.147 123.969 140.952 121.258 142.942C118.548 144.933 115.272 146.007 111.909 146.006H66.3965C63.195 146.005 60.0823 144.954 57.5355 143.014C54.9888 141.074 53.1486 138.352 52.297 135.266C51.3019 131.648 50.7545 127.921 50.667 124.169C58.1965 131.348 67.0683 140.733 87.8078 141.021C113.562 141.38 124.661 129.308 126.654 107.421C129.682 116.326 129.796 125.964 126.979 134.938Z" fill="#D857F7"/>
</g>
<g id="people">
<path id="Vector_29" d="M29.5398 132.256L28.6747 143.331C28.6628 143.482 28.6823 143.634 28.7319 143.777C28.7815 143.92 28.8602 144.051 28.963 144.162C29.0658 144.273 29.1905 144.362 29.3293 144.422C29.468 144.483 29.6178 144.514 29.7692 144.514H42.1537C42.3879 144.514 42.6161 144.44 42.8049 144.301C42.9937 144.163 43.1332 143.967 43.203 143.744C43.2727 143.52 43.2691 143.28 43.1926 143.059C43.1161 142.838 42.9707 142.647 42.7778 142.514L37.5385 138.894C37.3893 138.791 37.268 138.653 37.1853 138.492C37.1026 138.331 37.0611 138.152 37.0646 137.971L37.181 131.625C37.184 131.467 37.1526 131.31 37.0893 131.165C37.0259 131.021 36.9319 130.891 36.8138 130.786C36.6957 130.681 36.5562 130.602 36.405 130.556C36.2537 130.51 36.0943 130.497 35.9376 130.518L30.4864 131.254C30.2378 131.288 30.0083 131.406 29.8361 131.588C29.6639 131.77 29.5593 132.006 29.5398 132.256Z" fill="#444B8C"/>
<path id="Vector_30" d="M4.03601 126.679L0.07743 136.321C-0.00586824 136.524 -0.0224518 136.749 0.0300738 136.962C0.0825995 137.175 0.201519 137.366 0.369668 137.507L9.38592 145.101C9.54728 145.236 9.74607 145.319 9.95584 145.339C10.1656 145.359 10.3764 145.314 10.5602 145.211C10.744 145.108 10.8921 144.952 10.9847 144.762C11.0773 144.573 11.1102 144.36 11.0788 144.152L9.83651 136.025C9.81294 135.869 9.82528 135.71 9.8726 135.559L11.8088 129.362C11.8894 129.104 11.866 128.825 11.7435 128.584C11.6211 128.343 11.4093 128.159 11.1533 128.072L5.33187 126.093C5.08178 126.007 4.80826 126.019 4.56734 126.129C4.32642 126.238 4.13633 126.435 4.03601 126.679Z" fill="#444B8C"/>
<path id="Vector_31" d="M25.0898 62.3802C25.27 62.9161 25.4143 63.4634 25.5218 64.0184C25.7547 65.1582 25.9468 66.6124 26.1121 68.3263C26.6547 73.9149 26.8829 82.2302 26.9446 91.0567C27.0738 110.935 26.3217 133.437 26.3217 133.437L29.4513 133.387L37.1507 133.27L39.8728 133.227C43.9991 101.738 42.8231 75.1455 42.2014 65.8871C42.1828 65.5669 42.1583 65.2712 42.1455 64.9941C42.0163 63.2942 41.9301 62.3884 41.9301 62.3884L25.0898 62.3802Z" fill="#40B6E2"/>
<path id="Vector_32" d="M1.48157 128.704L3.04521 129.092L11.25 131.143L16.2634 132.399C16.2634 132.399 22.2013 110.365 26.9446 91.0544C29.2231 81.74 31.2315 73.0614 32.1548 67.7942C32.475 65.9313 32.6659 64.4992 32.6903 63.6121L25.5183 64.0184L16.4636 64.5365C16.4636 64.5365 16.2413 65.8358 15.8105 68.1702C14.0897 77.4776 9.03315 103.251 1.48157 128.704Z" fill="#40B6E2"/>
<path id="Vector_33" d="M38.7109 102.474C40.951 102.474 42.3737 101.917 42.4529 101.892L42.2201 101.32C42.1956 101.33 39.6831 102.303 36.1308 101.612L36.0144 102.216C36.9029 102.389 37.8059 102.475 38.7109 102.474Z" fill="#687375"/>
<path id="Vector_34" d="M20.8786 102.041C21.7943 102.039 22.7082 101.958 23.6101 101.8L23.4936 101.194C23.4517 101.202 19.2859 101.974 17.3625 100.63L17.0132 101.134C18.0354 101.851 19.556 102.041 20.8786 102.041Z" fill="#687375"/>
<path id="Vector_35" d="M9.833 135.839C9.60014 136.266 9.21126 136.654 8.71528 136.75L8.69781 136.634C9.17401 136.571 9.55938 136.22 9.81203 135.826L9.833 135.838V135.839Z" fill="white"/>
<path id="Vector_36" d="M9.96223 136.809C9.81786 137.151 9.60013 137.507 9.21359 137.624L9.19031 137.507C9.54658 137.437 9.7806 137.107 9.9401 136.802L9.96223 136.811V136.809Z" fill="white"/>
<path id="Vector_37" d="M10.1299 137.903C10.0391 138.158 9.91919 138.436 9.63627 138.536L9.61066 138.42C9.84351 138.369 10.0065 138.106 10.1078 137.894L10.1299 137.901V137.903Z" fill="white"/>
<path id="Vector_38" d="M10.3115 138.878C10.2359 139.07 10.1334 139.285 9.91917 139.354L9.90753 139.308C10.1008 139.255 10.2137 139.044 10.2894 138.869L10.3115 138.878Z" fill="white"/>
<path id="Vector_39" d="M38.0927 139.272C38.0123 139.498 37.9099 139.751 37.6607 139.842L37.6432 139.768C37.8598 139.709 37.9856 139.462 38.0705 139.265L38.0927 139.272Z" fill="white"/>
<path id="Vector_40" d="M37.3708 138.748C37.2287 139.028 36.9994 139.285 36.6722 139.357L36.6547 139.241C36.9458 139.207 37.1903 138.979 37.3451 138.737L37.3661 138.747L37.3708 138.748Z" fill="white"/>
<path id="Vector_41" d="M39.4444 140.201C39.434 140.262 39.4104 140.32 39.3752 140.371C39.34 140.422 39.2941 140.465 39.2406 140.496L39.2278 140.449C39.3291 140.417 39.3839 140.289 39.4211 140.194L39.4444 140.201Z" fill="white"/>
<path id="Vector_42" d="M38.8215 139.781C38.7656 139.948 38.6958 140.15 38.5176 140.22L38.5048 140.175C38.6632 140.119 38.7377 139.923 38.7982 139.774L38.8215 139.781Z" fill="white"/>
<path id="Vector_43" d="M34.1259 28.7079C34.1259 28.7079 44.6989 30.0433 47.3686 41.9517L44.1866 56.1234L45.6233 65.5681C45.6233 65.5681 31.2513 67.006 16.4683 64.5412L20.9601 40.4672L34.1259 28.7079Z" fill="#FE7471"/>
<path id="Vector_44" d="M27.5558 58.8921C27.5558 58.8921 30.7378 56.5565 26.5802 46.3177L23.8091 56.404L27.5558 58.8921Z" fill="#6E3620"/>
<path id="Vector_45" d="M40.7199 44.5613L39.9501 46.0152L28.1171 39.7499C27.9583 39.6658 27.8394 39.5221 27.7865 39.3503C27.7337 39.1785 27.7512 38.9928 27.8353 38.834L27.9699 38.5798C28.0115 38.5012 28.0683 38.4315 28.1368 38.3748C28.2054 38.3181 28.2845 38.2754 28.3695 38.2492C28.4546 38.2231 28.5439 38.2139 28.6325 38.2223C28.7211 38.2307 28.8072 38.2564 28.8858 38.298L40.7188 44.5634L40.7199 44.5613Z" fill="#102048"/>
<path id="Vector_46" d="M24.8873 55.5553L25.2016 55.3829L29.2848 53.1778L36.1273 49.4753C36.2507 48.6499 36.1588 47.9478 35.6616 47.4669L36.0004 47.3319C36.275 47.2158 36.5165 47.0335 36.7034 46.8013C36.8903 46.569 37.0168 46.2941 37.0716 46.0011L37.0844 45.9278C37.2122 45.4509 37.2246 44.9504 37.1205 44.4677L36.961 44.2582C36.5604 43.7342 36.3788 43.4699 35.8642 43.0566L36.7386 43.1055C36.7386 43.1055 38.8948 43.697 37.8912 42.3115C37.2008 41.3509 35.6546 40.5371 34.7744 40.1308C34.5929 40.0452 34.3893 40.0181 34.1918 40.0534C33.9942 40.0886 33.8125 40.1844 33.6718 40.3275C30.7087 43.4012 25.4985 47.0804 25.4985 47.0804L25.4426 47.8325L24.9373 54.7496L24.8873 55.5553Z" fill="#F9B384"/>
<path id="Vector_47" d="M32.9616 43.782L34.8245 42.8715C35.0182 42.7764 35.2372 42.7454 35.4497 42.783L37.429 43.1323L37.4826 42.8296L35.4963 42.4803C35.2191 42.4321 34.9338 42.4728 34.6813 42.5967L32.8184 43.5072L32.9616 43.782Z" fill="#E28B6D"/>
<path id="Vector_48" d="M33.3086 45.5353L35.544 44.6784C35.6433 44.6404 35.7486 44.6211 35.8549 44.6213H37.1286V44.314H35.8549C35.7113 44.3138 35.5688 44.3398 35.4346 44.3908L33.2026 45.2477L33.3086 45.5353Z" fill="#E28B6D"/>
<path id="Vector_49" d="M33.616 47.2807L35.6465 46.5134C35.8072 46.453 35.98 46.4315 36.1506 46.4506L36.9831 46.5449L37.018 46.2398L36.1856 46.1444C35.966 46.1199 35.7437 46.1478 35.5371 46.2259L33.5065 46.9931L33.616 47.2807Z" fill="#E28B6D"/>
<path id="Vector_50" d="M24.942 54.7542L25.2005 55.3829L29.2848 53.1778L26.5802 46.3154L25.4473 47.8372L24.942 54.7542Z" fill="#E28B6D"/>
<path id="Vector_51" d="M27.5558 58.8921C27.5558 58.8921 21.4468 64.6926 16.4683 64.5378L17.9062 57.7115L27.5558 58.8921Z" fill="#BA5C36"/>
<path id="Vector_52" d="M34.1259 28.7078C33.4586 28.6546 32.7886 28.643 32.1198 28.6729C19.79 29.0944 10.3476 39.7045 10.9472 52.0274C11.1952 57.1211 12.519 62.1788 16.7768 62.2801L27.5558 58.892C26.5394 55.079 25.7803 51.1251 26.5801 46.3177L21.5737 48.7045L34.1259 28.7078Z" fill="#FE7471"/>
<path id="Vector_53" d="M30.6086 58.4194L45.6745 58.7885L46.0866 57.5136L47.6026 52.8565L51.9884 39.3856L36.9214 39.0154L30.6086 58.4194Z" fill="#C1C1C1"/>
<path id="Vector_54" opacity="0.3" d="M44.4066 51.2427C44.4066 51.2427 44.431 55.4073 46.0878 57.5135L47.6014 52.8564L44.4066 51.2427Z" fill="#1F3C88"/>
<path id="Vector_55" d="M51.7148 50.9179C51.2398 49.3857 50.3747 47.9711 49.4247 46.695C49.122 46.2887 48.463 45.2909 47.8319 45.4422C46.5512 45.7508 47.8319 48.0037 47.8319 48.0037C47.8319 48.0037 46.6001 46.156 46.1379 47.0792C45.6757 48.0025 46.3428 49.0306 46.3428 49.0306C46.3428 49.0306 44.3926 47.7499 45.111 50.3113C45.111 50.3113 43.5206 50.1064 44.4951 51.8505C45.1937 53.0963 45.6419 54.4853 46.514 55.6298C47.386 56.7743 49.0428 57.4298 50.4143 56.7719C52.0269 56 52.233 53.9381 52.0339 52.3674C51.9696 51.876 51.8628 51.391 51.7148 50.9179Z" fill="#F9B384"/>
<path id="Vector_56" d="M48.9473 50.5115C48.9686 50.5118 48.9896 50.5075 49.009 50.4987C49.0465 50.4821 49.0758 50.4513 49.0907 50.4131C49.1055 50.375 49.1046 50.3324 49.0882 50.2949L47.6247 46.9848C47.6172 46.9654 47.6058 46.9477 47.5912 46.9329C47.5767 46.918 47.5593 46.9062 47.54 46.8982C47.5208 46.8903 47.5001 46.8863 47.4793 46.8866C47.4585 46.8869 47.438 46.8914 47.419 46.8998C47.3999 46.9083 47.3828 46.9205 47.3687 46.9357C47.3545 46.951 47.3436 46.969 47.3366 46.9886C47.3296 47.0082 47.3266 47.029 47.3279 47.0498C47.3292 47.0705 47.3347 47.0908 47.3441 47.1094L48.8041 50.4183C48.8159 50.4464 48.8359 50.4702 48.8614 50.4868C48.8869 50.5034 48.9168 50.512 48.9473 50.5115Z" fill="#E28B6D"/>
<path id="Vector_57" d="M47.4454 51.7445C47.468 51.7447 47.4904 51.7395 47.5106 51.7294C47.529 51.7209 47.5455 51.7088 47.5592 51.6939C47.5729 51.679 47.5836 51.6615 47.5905 51.6424C47.5974 51.6234 47.6005 51.6032 47.5996 51.5829C47.5987 51.5627 47.5938 51.5428 47.5851 51.5245L46.1996 48.5556C46.182 48.5188 46.1506 48.4905 46.1123 48.4766C46.074 48.4626 46.0318 48.4642 45.9947 48.481C45.9578 48.4985 45.9292 48.5298 45.9153 48.5682C45.9013 48.6065 45.9031 48.6489 45.9202 48.686L47.3069 51.6502C47.3183 51.6777 47.3376 51.7012 47.3621 51.7179C47.3867 51.7347 47.4157 51.7439 47.4454 51.7445Z" fill="#E28B6D"/>
<path id="Vector_58" d="M46.2904 52.7469C46.3155 52.7468 46.3402 52.7408 46.3626 52.7295C46.3805 52.72 46.3964 52.7071 46.4094 52.6915C46.4223 52.676 46.432 52.6579 46.438 52.6386C46.4439 52.6192 46.446 52.5989 46.444 52.5787C46.4421 52.5585 46.4362 52.5389 46.4266 52.5211L45.2332 50.2495C45.2142 50.2134 45.1817 50.1863 45.1427 50.1742C45.1037 50.1621 45.0615 50.1659 45.0254 50.1849C44.9893 50.2039 44.9622 50.2365 44.9501 50.2754C44.9379 50.3144 44.9418 50.3566 44.9608 50.3927L46.1542 52.6643C46.1673 52.6891 46.1869 52.7099 46.2108 52.7245C46.2348 52.739 46.2623 52.7468 46.2904 52.7469Z" fill="#E28B6D"/>
<path id="Vector_59" d="M41.3119 40.3601H46.7014L47.6247 38.5123H42.2352L41.3119 40.3601Z" fill="#102048"/>
<path id="Vector_60" d="M34.2714 34.725C35.2204 34.7317 36.1493 34.4517 36.9365 33.9216C36.9762 33.8815 37 33.8284 37.0034 33.7722C37.0069 33.7159 36.9899 33.6602 36.9555 33.6156C36.921 33.5709 36.8716 33.5403 36.8163 33.5293C36.761 33.5184 36.7036 33.5278 36.6547 33.556C36.5662 33.6224 34.4763 35.1779 31.6786 33.4896C31.6267 33.4664 31.5681 33.463 31.5138 33.48C31.4596 33.497 31.4134 33.5333 31.3841 33.582C31.3547 33.6307 31.3442 33.6884 31.3545 33.7443C31.3648 33.8002 31.3951 33.8504 31.4399 33.8855C32.4842 34.5154 33.4506 34.725 34.2714 34.725Z" fill="#BA5C36"/>
<path id="Vector_61" d="M27.5558 59.1226C27.5779 59.1223 27.5998 59.1192 27.621 59.1133C27.6796 59.0955 27.7289 59.0554 27.7581 59.0015C27.7873 58.9477 27.7941 58.8846 27.7771 58.8257C25.5649 51.3266 26.7909 46.4226 26.8037 46.3678L26.8934 46.0186L17.3543 47.6241C17.2942 47.6347 17.2407 47.6684 17.2052 47.718C17.1697 47.7677 17.1551 47.8293 17.1646 47.8896C17.1751 47.9499 17.209 48.0037 17.2589 48.0392C17.3088 48.0747 17.3707 48.0891 17.4312 48.0793L26.2798 46.596C26.0469 47.85 25.4124 52.4606 27.3276 58.9538C27.3418 59.0032 27.3718 59.0465 27.413 59.077C27.4543 59.1075 27.5045 59.1236 27.5558 59.1226Z" fill="#BA5C36"/>
<path id="Vector_62" d="M20.5748 47.4704H20.5887C20.6497 47.4662 20.7065 47.4382 20.7471 47.3925C20.7876 47.3467 20.8085 47.2869 20.8053 47.2259C20.8053 47.1758 20.548 42.2066 24.0001 37.0966C24.0218 37.0717 24.038 37.0425 24.0476 37.0109C24.0572 36.9793 24.0599 36.946 24.0557 36.9132C24.0514 36.8805 24.0402 36.849 24.0229 36.8209C24.0055 36.7928 23.9824 36.7688 23.955 36.7503C23.9276 36.7318 23.8967 36.7194 23.8641 36.7138C23.8316 36.7082 23.7982 36.7096 23.7662 36.7179C23.7343 36.7262 23.7044 36.7412 23.6787 36.762C23.653 36.7827 23.632 36.8086 23.617 36.8381C20.0729 42.0774 20.3419 47.2003 20.3442 47.248C20.3469 47.3075 20.3723 47.3637 20.4152 47.4051C20.4581 47.4465 20.5152 47.4698 20.5748 47.4704Z" fill="#BA5C36"/>
<path id="Vector_63" d="M29.8914 23.0389V28.9838C29.8914 30.9014 31.3864 32.4557 33.2318 32.4557C35.0772 32.4557 36.5709 30.9014 36.5709 28.9838V23.0389H29.8914Z" fill="#F9B384"/>
<path id="Vector_64" d="M33.0478 23.8319C33.0478 23.8319 33.3971 27.5052 36.5709 28.567V23.3499L33.0478 23.8319Z" fill="#102048"/>
<path id="Vector_65" d="M39.0928 16.2628C39.0928 16.2628 40.129 24.6014 36.8806 25.5899C33.6323 26.5784 30.6633 23.7061 30.6633 23.7061L31.2757 16.8274L36.0796 14.0017L39.0928 16.2628Z" fill="#F9B384"/>
<path id="Vector_66" d="M20.6004 32.4674L27.0121 32.8935C27.8271 31.9994 28.2823 30.7443 28.5827 29.3262C28.8528 30.785 28.6398 31.997 27.9238 32.9541L29.6609 33.0705C31.2001 30.7664 32.4936 25.6668 30.966 21.3112L30.7879 20.282C30.7879 20.282 31.8835 16.9626 33.4727 16.8205C33.4727 16.8205 38.924 20.4974 41.3515 16.3956C43.162 13.3405 41.6344 9.32367 37.2765 12.2868C37.2765 12.2868 26.8118 7.37698 26.8363 17.4423C26.8421 19.2469 26.1645 21.0213 24.8279 22.2287C24.7138 22.3413 24.5925 22.4463 24.4646 22.543C22.1209 24.3989 19.5898 28.1072 20.6004 32.4674Z" fill="#102048"/>
<path id="Vector_67" d="M31.2059 22.0514C32.0279 21.7865 32.4432 20.7929 32.1336 19.832C31.824 18.8711 30.9067 18.3069 30.0847 18.5717C29.2628 18.8366 28.8474 19.8302 29.157 20.7911C29.4667 21.752 30.384 22.3162 31.2059 22.0514Z" fill="#F9B384"/>
<path id="Vector_68" d="M30.8403 20.906C30.8811 20.906 30.9203 20.8898 30.9494 20.8611C30.9784 20.8323 30.9948 20.7932 30.9951 20.7523C30.9951 20.0875 30.47 19.4995 29.8483 19.4716H29.8401C29.7994 19.4707 29.7599 19.486 29.7304 19.5141C29.701 19.5423 29.6839 19.581 29.683 19.6218C29.682 19.6625 29.6973 19.702 29.7255 19.7315C29.7537 19.761 29.7924 19.778 29.8332 19.779C30.2453 19.7999 30.6866 20.1958 30.6866 20.7546C30.6875 20.7949 30.704 20.8332 30.7327 20.8615C30.7614 20.8897 30.8 20.9057 30.8403 20.906Z" fill="#102048"/>
<path id="Vector_69" d="M37.9506 19.4483C37.9504 19.5246 37.9728 19.5993 38.0151 19.6628C38.0573 19.7264 38.1175 19.776 38.188 19.8053C38.2585 19.8346 38.336 19.8423 38.4109 19.8275C38.4858 19.8127 38.5545 19.7759 38.6085 19.722C38.6625 19.668 38.6992 19.5992 38.714 19.5244C38.7289 19.4495 38.7211 19.3719 38.6918 19.3015C38.6625 19.231 38.6129 19.1708 38.5494 19.1285C38.4858 19.0863 38.4112 19.0639 38.3348 19.0641C38.233 19.0644 38.1355 19.105 38.0635 19.177C37.9915 19.2489 37.9509 19.3465 37.9506 19.4483Z" fill="#102048"/>
<path id="Vector_70" d="M35.6278 19.2504C35.6278 19.3266 35.6504 19.4012 35.6928 19.4646C35.7352 19.528 35.7955 19.5774 35.866 19.6065C35.9365 19.6357 36.014 19.6432 36.0888 19.6283C36.1636 19.6133 36.2323 19.5765 36.2861 19.5225C36.34 19.4685 36.3766 19.3997 36.3913 19.3248C36.406 19.25 36.3983 19.1725 36.3689 19.1021C36.3396 19.0317 36.29 18.9716 36.2265 18.9294C36.1629 18.8872 36.0883 18.8648 36.012 18.865C35.91 18.8653 35.8123 18.906 35.7403 18.9783C35.6683 19.0505 35.6278 19.1484 35.6278 19.2504Z" fill="#102048"/>
<path id="Vector_71" d="M37.0867 23.1309C37.1603 23.1315 37.2338 23.1272 37.3068 23.1181C37.3469 23.1115 37.3829 23.0894 37.4069 23.0565C37.4308 23.0236 37.4409 22.9826 37.4348 22.9423C37.4272 22.9026 37.4048 22.8672 37.3722 22.8433C37.3396 22.8193 37.2992 22.8085 37.259 22.8131C36.9936 22.8363 36.7263 22.8055 36.4731 22.7224C36.2199 22.6394 35.9863 22.5058 35.7862 22.3299C35.7553 22.303 35.715 22.2895 35.6742 22.2924C35.6334 22.2952 35.5953 22.3141 35.5685 22.345C35.5416 22.3759 35.5281 22.4162 35.531 22.457C35.5338 22.4978 35.5527 22.5359 35.5836 22.5627C35.9995 22.9276 36.5335 23.1294 37.0867 23.1309Z" fill="#102048"/>
</g>
</g>
</svg>
