<svg width="169" height="155" viewBox="0 0 169 155" fill="none" xmlns="http://www.w3.org/2000/svg">
<g id="object-card-right">
<g id="monitor-card-right">
<path id="Vector" d="M6.16894 114.767C2.77581 114.969 0 112.768 0 109.859V5.01532C0 2.10675 2.77581 -0.139846 6.16894 0.00678897L163.081 6.80632C165.572 6.91374 167.59 9.0143 167.59 11.4884V100.657C167.59 103.131 165.572 105.264 163.081 105.412L6.16894 114.767Z" fill="url(#paint0_linear_315_10)"/>
<path id="Vector_2" d="M7.57922 114.767C4.18609 114.969 1.41028 112.768 1.41028 109.859V5.01532C1.41028 2.10675 4.18609 -0.139846 7.57922 0.00678897L164.492 6.80632C166.983 6.91374 169 9.0143 169 11.4884V100.657C169 103.131 166.983 105.264 164.492 105.412L7.57922 114.767Z" fill="url(#paint1_linear_315_10)"/>
<g id="Vector_3" style="mix-blend-mode:multiply" opacity="0.3">
<path d="M164.492 8.90446L7.57914 2.44949C5.76521 2.37466 4.29041 3.57369 4.29041 5.12694V109.703C4.29041 111.256 5.76521 112.43 7.57914 112.326L164.492 103.314C165.827 103.237 166.905 102.099 166.905 100.772V11.4075C166.907 10.08 165.827 8.96058 164.492 8.90446Z" fill="#D8DEE8"/>
</g>
<path id="Vector_4" d="M7.57919 103.418C6.87317 103.453 6.2981 102.989 6.2981 102.385V5.20422C6.2981 4.60079 6.87317 4.13131 7.57919 4.15907L164.492 10.3745C164.744 10.386 164.982 10.4937 165.158 10.6753C165.333 10.857 165.433 11.0989 165.436 11.3514V94.6747C165.432 94.928 165.333 95.1705 165.158 95.3535C164.983 95.5365 164.745 95.6463 164.492 95.6607L7.57919 103.418Z" fill="url(#paint2_linear_315_10)"/>
<g id="Vector_5" style="mix-blend-mode:soft-light" opacity="0.6">
<path d="M148.111 98.9229C134.91 90.7572 144.128 67.5393 129.305 55.8743C114.359 44.1133 93.3271 58.5378 82.8575 46.3581C75.0623 37.289 84.1851 26.3384 76.7404 17.81C65.0669 4.43482 35.1853 22.83 21.4565 9.65334C19.5074 7.78269 17.5402 4.94653 16.4208 0.390574L7.57922 0.00739274C4.18609 -0.139846 1.41028 2.10675 1.41028 5.01593V109.859C1.41028 112.768 4.18609 114.969 7.57922 114.767L164.492 105.413C166.983 105.265 169 103.132 169 100.658V99.0726C158.581 102.607 152.211 101.46 148.111 98.9229Z" fill="white"/>
</g>
<g id="Group" opacity="0.8">
<path id="Vector_6" opacity="0.8" d="M96.3907 24.2717V39.9478C96.3907 39.9478 92.4201 41.1764 91.588 44.9485L86.2451 44.9358C85.4045 41.1378 81.4037 39.8488 81.4037 39.8488V23.9784L84.7685 24.0442C84.6991 24.2542 84.6352 24.4521 84.6352 24.6911C84.6352 26.4549 86.5764 27.8929 88.9799 27.9321C91.3756 27.9707 93.3029 26.6172 93.3029 24.8654C93.3029 24.6283 93.1666 24.4183 93.0978 24.2077L96.3907 24.2717Z" fill="#F4F7FA"/>
<path id="Vector_7" opacity="0.8" d="M81.3235 23.883L75.8769 27.4457L78.6062 31.6474L82.8707 30.4786L81.3235 23.883Z" fill="#F4F7FA"/>
<path id="Vector_8" opacity="0.8" d="M96.5187 24.1763L101.787 27.8705L99.1587 31.9154L95.0052 30.6487L96.5187 24.1763Z" fill="#F4F7FA"/>
<path id="Vector_9" opacity="0.8" d="M62.9898 54.7567L19.3118 54.9908V17.8975L62.9898 18.8986V54.7567ZM19.9544 54.3216L61.9193 54.1165V19.7368L19.9544 18.8027V54.3216Z" fill="white"/>
<path id="Vector_10" opacity="0.8" d="M62.9899 94.265L19.3118 95.8599V58.7666L62.9899 58.4045V94.265ZM19.9545 95.1702L61.9194 93.6556V59.0605L19.9545 59.4292V95.1702Z" fill="white"/>
<path id="Vector_11" opacity="0.8" d="M109.237 54.5027L69.1993 54.7205V19.038L109.237 19.9601V54.5027ZM69.8419 54.0766L108.595 53.886V20.7759L69.8419 19.9106V54.0766Z" fill="white"/>
<path id="Vector_12" opacity="0.8" d="M109.237 92.5591L69.1986 94.0327V58.3526L109.237 58.0189L109.237 92.5591ZM69.8419 93.3671L108.595 91.9623V58.6453L69.8419 58.9856V93.3671Z" fill="white"/>
<path id="Vector_13" opacity="0.8" d="M152.488 54.2697L115.018 54.4737V20.0958L152.488 20.9569V54.2697ZM115.875 53.8515L151.845 53.6747V21.742L115.875 20.9382V53.8515Z" fill="white"/>
<path id="Vector_14" opacity="0.8" d="M152.488 90.9739L115.018 92.3516V57.9737L152.488 57.6611V90.9739ZM115.875 91.7023L151.845 90.3982V58.2652L115.875 58.5832V91.7023Z" fill="white"/>
<path id="Vector_15" opacity="0.8" d="M57.2747 50.2562C57.2747 51.2091 56.4389 51.9845 55.404 51.9875L25.73 52.0829C24.6438 52.0865 23.7676 51.2984 23.7676 50.3184C23.7676 49.3402 24.6468 48.5467 25.73 48.5461L55.404 48.5322C56.4365 48.5322 57.2747 49.3034 57.2747 50.2562Z" fill="white"/>
<path id="Vector_16" opacity="0.8" d="M104.633 50.1687C104.633 51.086 103.858 51.8324 102.901 51.8354L75.4304 51.9254C74.4287 51.9254 73.6152 51.1686 73.6152 50.2279C73.6152 49.2871 74.4287 48.5244 75.4304 48.5238L102.901 48.5105C103.858 48.5105 104.633 49.2533 104.633 50.1706V50.1687Z" fill="white"/>
<path id="Vector_17" opacity="0.8" d="M148.578 50.0879C148.577 50.5139 148.407 50.9221 148.106 51.2231C147.805 51.5242 147.396 51.6936 146.97 51.6942L121.465 51.7757C120.536 51.7757 119.782 51.0467 119.782 50.141C119.782 49.2358 120.536 48.5002 121.465 48.5002L146.97 48.4876C147.181 48.4869 147.39 48.5278 147.585 48.6079C147.78 48.688 147.957 48.8058 148.106 48.9544C148.255 49.103 148.374 49.2796 148.455 49.4741C148.536 49.6686 148.578 49.8772 148.578 50.0879V50.0879Z" fill="white"/>
<path id="Vector_18" opacity="0.8" d="M57.2747 88.644C57.2747 89.5968 56.4389 90.397 55.404 90.4314L25.73 91.4258C24.6438 91.462 23.7676 90.6987 23.7676 89.7205C23.7676 88.7423 24.6468 87.9223 25.73 87.8891L55.404 86.9761C56.4365 86.9441 57.2747 87.6912 57.2747 88.644V88.644Z" fill="white"/>
<path id="Vector_19" opacity="0.8" d="M104.633 87.1221C104.633 88.0393 103.858 88.8087 102.901 88.8407L75.4304 89.761C74.4287 89.7947 73.6152 89.0592 73.6152 88.119C73.6152 87.1782 74.4287 86.3907 75.4304 86.36L102.901 85.5152C103.858 85.4856 104.633 86.2055 104.633 87.1227V87.1221Z" fill="white"/>
<path id="Vector_20" opacity="0.8" d="M148.578 85.71C148.575 86.1397 148.405 86.5514 148.106 86.8596C147.806 87.1678 147.4 87.3486 146.97 87.3646L121.465 88.2191C120.536 88.2498 119.782 87.5408 119.782 86.635C119.782 85.7299 120.536 84.972 121.465 84.9454L146.97 84.1609C147.179 84.1525 147.387 84.1864 147.582 84.2606C147.778 84.3348 147.956 84.4479 148.106 84.5929C148.256 84.7379 148.376 84.9118 148.457 85.1042C148.538 85.2967 148.579 85.5035 148.578 85.7124V85.71Z" fill="white"/>
<path id="Vector_21" opacity="0.8" d="M88.8876 63.0286C88.5605 63.0328 88.2956 63.3997 88.2956 63.7726C88.2956 64.2626 88.0198 64.7321 87.6113 64.8914L87.4514 64.9693C86.8612 65.1992 86.446 65.8177 86.3996 66.5243L85.2048 68.3769L89.5393 67.0825V63.022L88.8876 63.0286Z" fill="#F4F7FA"/>
<path id="Vector_22" opacity="0.8" d="M89.6304 63.0171C89.9569 63.0135 90.2175 63.3737 90.2175 63.7455C90.2175 64.2349 90.4903 64.6959 90.8976 64.8437L91.0557 64.9167C91.6417 65.1298 92.0526 65.7344 92.0985 66.4362L93.5347 68.7009L89.2183 68.019L89.1115 63.025L89.6304 63.0171Z" fill="#F4F7FA"/>
<path id="Vector_23" opacity="0.8" d="M92.0888 68.0196L86.2958 68.115C85.0358 68.1355 83.9702 69.0473 83.9702 70.2409V70.8986L85.9766 70.8606C86.163 70.8606 86.3254 70.921 86.3254 71.096V71.1871C86.3254 71.3633 86.163 71.4888 85.9766 71.493L83.9702 71.5323V73.0101L85.9766 72.9684C86.0647 72.9647 86.1508 72.9958 86.2161 73.0551C86.2814 73.1144 86.3207 73.1971 86.3254 73.2852V73.3764C86.3254 73.5526 86.163 73.5972 85.9766 73.6008L83.9702 73.6437V75.1215L85.9766 75.0762C86.163 75.072 86.3254 75.2983 86.3254 75.4745V75.5656C86.3211 75.6572 86.2831 75.744 86.2187 75.8092C86.1543 75.8745 86.0681 75.9137 85.9766 75.9192L83.9702 75.9657V77.4435L85.9766 77.3947C86.163 77.3904 86.3254 77.4876 86.3254 77.6638V77.7525C86.3254 77.9287 86.163 78.0204 85.9766 78.0246L83.9702 78.0747V79.5526L85.9766 79.5C86.0683 79.5034 86.1554 79.5414 86.2202 79.6065C86.2849 79.6716 86.3225 79.7589 86.3254 79.8506V79.9418C86.3254 80.118 86.163 80.3382 85.9766 80.343L83.9702 80.3968V80.541C83.9702 81.734 85.072 82.6874 86.3314 82.653L92.0852 82.4901C92.665 82.4776 93.2168 82.2376 93.6212 81.8219C94.0257 81.4063 94.2506 80.8482 94.2473 80.2682V70.052C94.2497 68.8699 93.3361 67.9991 92.0888 68.0196Z" fill="#F4F7FA"/>
<path id="Vector_24" opacity="0.8" d="M135.951 66.8164C135.758 66.6833 135.52 66.6311 135.288 66.6709C135.057 66.7106 134.85 66.8393 134.711 67.0295L129.559 74.0897C129.49 74.1822 129.44 74.2878 129.412 74.4001C129.385 74.5124 129.38 74.6292 129.398 74.7433C129.417 74.8575 129.458 74.9668 129.52 75.0646C129.581 75.1625 129.662 75.2469 129.757 75.3128L129.904 75.4148C130.101 75.5469 130.341 75.5975 130.574 75.556C130.807 75.5144 131.015 75.384 131.154 75.1922L136.292 68.1319C136.361 68.0397 136.41 67.9346 136.438 67.823C136.465 67.7113 136.47 67.5953 136.451 67.4818C136.433 67.3684 136.392 67.2597 136.332 67.1622C136.271 67.0647 136.191 66.9804 136.097 66.9142L135.951 66.8164Z" fill="#F4F7FA"/>
<path id="Vector_25" opacity="0.8" d="M128.719 68.6527C128.524 68.9188 128.674 69.3478 128.996 69.5711C129.418 69.865 129.652 70.3658 129.539 70.7894L129.507 70.9632C129.349 71.5751 129.628 72.2775 130.209 72.7355L130.595 72.9769L132.587 70.5402L129.105 68.1168L128.719 68.6527Z" fill="#F4F7FA"/>
<path id="Vector_26" opacity="0.8" d="M129.157 68.0541C129.352 67.7886 129.816 67.7873 130.137 68.0112C130.56 68.3051 131.12 68.3582 131.494 68.1192L131.652 68.0335C132.191 67.6896 132.96 67.7204 133.591 68.1048L133.964 68.3624L132.275 70.9735L128.791 68.5507L129.157 68.0541Z" fill="#F4F7FA"/>
<path id="Vector_27" opacity="0.8" d="M130.085 67.062C130.269 67.1905 130.425 67.3545 130.544 67.5444C130.663 67.7343 130.743 67.9462 130.778 68.1674C130.814 68.3887 130.805 68.6149 130.751 68.8325C130.697 69.0501 130.601 69.2547 130.466 69.4342C130.195 69.8054 129.791 70.0569 129.338 70.1358C128.885 70.2146 128.42 70.1145 128.039 69.8566C127.855 69.7282 127.698 69.564 127.578 69.3738C127.459 69.1836 127.379 68.9712 127.343 68.7493C127.307 68.5275 127.317 68.3007 127.371 68.0826C127.425 67.8644 127.522 67.6594 127.657 67.4796C127.928 67.1086 128.333 66.8577 128.787 66.7798C129.24 66.7019 129.706 66.8031 130.085 67.062V67.062Z" fill="#F4F7FA"/>
<path id="Vector_28" opacity="0.8" d="M140.397 76.3435C138.848 78.4899 135.842 79.0366 133.695 77.5503C131.547 76.0641 131.059 73.0891 132.628 70.9361C134.198 68.783 137.208 68.2671 139.343 69.7636C141.479 71.2601 141.942 74.2031 140.397 76.3435ZM133.781 71.7404C132.677 73.2569 133.015 75.349 134.531 76.399C136.047 77.449 138.164 77.0628 139.257 75.5506C140.351 74.0383 140.016 71.9607 138.513 70.9101C137.011 69.8595 134.883 70.227 133.781 71.7404V71.7404Z" fill="#F4F7FA"/>
<g id="sokasi">
<path id="Vector (Stroke)" opacity="0.8" fill-rule="evenodd" clip-rule="evenodd" d="M28.9323 64.3857H51.7232L51.283 70.6625L41.0751 73.3687L29.4068 71.1609L28.9983 65.3289L28.9323 64.3857ZM29.5794 64.9892L29.6003 65.2867L29.9762 70.6545L41.0528 72.7504L50.7112 70.1898L51.076 64.9892H29.5794Z" fill="white"/>
<path id="Vector (Stroke)_2" opacity="0.8" fill-rule="evenodd" clip-rule="evenodd" d="M29.169 64.9764L29.3428 64.3986L40.7444 67.8268L50.9196 64.4015L51.1121 64.9735L40.7547 68.46L29.169 64.9764Z" fill="white"/>
<path id="Vector (Stroke)_3" opacity="0.8" fill-rule="evenodd" clip-rule="evenodd" d="M51.2981 70.4473L50.6795 79.274L41.1513 82.972L30.0235 79.9548L29.3906 70.9288L29.9925 70.8866L30.5954 79.4847L41.1178 82.3377L50.1043 78.85L50.6961 70.4051L51.2981 70.4473Z" fill="white"/>
<path id="Vector (Stroke)_4" opacity="0.8" fill-rule="evenodd" clip-rule="evenodd" d="M51.0562 71.1819L41.0172 74.3835L29.6652 71.7854L29.7998 71.1971L30.1456 71.2763L30.1456 71.2762L40.9911 73.7584L50.8728 70.607L51.0562 71.1819Z" fill="white"/>
<path id="Vector_29" opacity="0.8" d="M31.389 64.8474H49.5181L40.9372 68.08L31.0269 64.8474H31.389Z" fill="white"/>
</g>
<g id="dompet" opacity="0.8">
<path id="Vector_30" opacity="0.8" d="M54.8772 39.9888L27.1643 40.7932C26.9634 40.7975 26.7636 40.7613 26.5769 40.6868C26.3902 40.6123 26.2204 40.501 26.0776 40.3595C25.9348 40.218 25.822 40.0492 25.7458 39.8632C25.6695 39.6772 25.6315 39.4777 25.634 39.2767V27.7275C25.6316 27.5265 25.6695 27.327 25.7457 27.141C25.8219 26.9549 25.9348 26.7861 26.0776 26.6446C26.2203 26.503 26.3901 26.3917 26.5768 26.3171C26.7635 26.2425 26.9633 26.2063 27.1643 26.2105L54.8772 27.0076C55.538 27.0263 56.0763 27.6599 56.0763 28.4154V38.5797C56.0763 39.3358 55.538 39.9695 54.8772 39.9888Z" fill="white"/>
<path id="Vector_31" opacity="0.8" d="M54.6359 35.0961L27.4679 35.2928C26.4626 35.3001 25.634 34.4631 25.634 33.433V27.9689C25.634 26.9388 26.4626 26.12 27.4679 26.1495L54.6359 26.9376C55.43 26.9611 56.0763 27.7221 56.0763 28.6272V33.4348C56.0763 34.3436 55.43 35.0895 54.6359 35.0961Z" fill="#F9DEF0"/>
<path id="Vector_32" opacity="0.8" d="M54.4748 33.1295C54.4748 33.5754 54.1586 33.9375 53.767 33.9381C53.3754 33.9387 53.0543 33.576 53.0543 33.1276C53.0543 32.6793 53.3741 32.3172 53.767 32.319C54.1598 32.3208 54.4748 32.6841 54.4748 33.1295Z" fill="white"/>
<path id="Vector (Stroke)_5" opacity="0.8" fill-rule="evenodd" clip-rule="evenodd" d="M25.4415 27.1688C25.1473 27.5678 24.8807 28.1034 24.7108 28.82C24.7062 28.8359 24.7017 28.8515 24.6974 28.8668C24.6562 29.0115 24.6266 29.1317 24.6072 29.2159C24.5975 29.2581 24.5903 29.2913 24.5856 29.3141C24.5837 29.3231 24.5822 29.3305 24.581 29.3362L24.577 29.3453C24.5708 29.3594 24.5617 29.3803 24.5498 29.4076C24.5261 29.4623 24.4914 29.5425 24.4476 29.6449C24.3599 29.8499 24.2357 30.1439 24.0894 30.5008C23.7969 31.2145 23.4157 32.1799 23.0615 33.1861C22.7076 34.1915 22.3793 35.2411 22.1939 36.1222C22.1013 36.5624 22.0434 36.9648 22.037 37.3006C22.0307 37.6313 22.0735 37.9194 22.2035 38.1125C22.4341 38.4549 22.7183 38.6606 23.0257 38.7546C23.3317 38.8482 23.6512 38.8282 23.9498 38.7361C24.5423 38.5534 25.0761 38.0793 25.3035 37.5772C25.3659 37.4393 25.3942 37.2649 25.402 37.0678C25.4099 36.8693 25.3972 36.6384 25.3714 36.3824C25.3286 35.9589 25.2486 35.4557 25.1604 34.9012C25.1421 34.7865 25.1235 34.6697 25.1049 34.5509C24.8859 33.1588 24.652 31.4845 24.793 29.85C24.8238 29.493 24.8759 29.1715 24.9442 28.8821C25.0243 28.6077 25.1445 28.2543 25.3126 27.8963C25.4071 27.6951 25.5152 27.4957 25.6379 27.3092C25.772 27.1278 25.9111 26.9782 26.047 26.855C26.3145 26.6126 26.5727 26.4698 26.7626 26.388C26.8575 26.347 26.9353 26.3213 26.9886 26.306C27.0152 26.2984 27.0356 26.2933 27.0489 26.2903C27.0556 26.2887 27.0604 26.2877 27.0634 26.2871C27.0649 26.2868 27.0659 26.2866 27.0665 26.2865L27.0666 26.2865L27.0667 26.2865C27.0667 26.2865 27.0667 26.2865 27.0662 26.2837L27.032 26.0477C26.3287 26.1266 25.8118 26.6091 25.4415 27.1688ZM24.5353 30.0564C24.4698 30.2121 24.3948 30.3924 24.3128 30.5924C24.0212 31.3038 23.6416 32.2652 23.2892 33.2662C22.9365 34.2681 22.6123 35.3062 22.4301 36.1719C22.339 36.605 22.2844 36.9908 22.2784 37.3052C22.2723 37.6248 22.3171 37.8491 22.4038 37.9777C22.6065 38.2789 22.847 38.4476 23.0963 38.5238C23.347 38.6004 23.6162 38.5864 23.8787 38.5055C24.4082 38.3422 24.8861 37.9138 25.0836 37.4776C25.1274 37.3809 25.1535 37.2423 25.1608 37.0583C25.1681 36.8757 25.1566 36.6575 25.1312 36.4067C25.0892 35.9907 25.0106 35.496 24.9224 34.9416C24.9041 34.8264 24.8853 34.7086 24.8664 34.5884C24.6575 33.2597 24.4304 31.6499 24.5353 30.0564Z" fill="white"/>
</g>
<g id="tas" opacity="0.8">
<path id="Vector_33" opacity="0.8" d="M130.311 44.24C130.311 44.24 140.579 44.3148 141.428 43.4483C142.278 42.5817 145.357 30.1087 143.743 29.997C142.129 29.8854 125.352 29.454 125.58 31.6263C125.578 31.6287 127.78 44.2146 130.311 44.24Z" fill="#F4F7FA"/>
<path id="Vector (Stroke)_6" opacity="0.8" fill-rule="evenodd" clip-rule="evenodd" d="M128.646 32.7961C128.646 32.7961 128.646 32.796 128.376 32.823C128.106 32.8499 128.106 32.8498 128.106 32.8496L128.106 32.8491L128.105 32.8475L128.105 32.8421C128.104 32.8375 128.104 32.8309 128.103 32.8224C128.102 32.8055 128.1 32.7809 128.098 32.7493C128.093 32.686 128.088 32.5943 128.083 32.4783C128.075 32.2464 128.071 31.9168 128.09 31.5225C128.129 30.7358 128.257 29.6826 128.624 28.6322C128.991 27.5814 129.601 26.5208 130.609 25.7392C131.621 24.9547 133.01 24.4696 134.898 24.5325C136.807 24.596 138.245 25.1415 139.323 25.9369C140.399 26.7308 141.101 27.7621 141.558 28.7758C142.015 29.7887 142.231 30.7902 142.334 31.5363C142.385 31.91 142.408 32.2213 142.418 32.4402C142.423 32.5497 142.425 32.6362 142.426 32.696C142.426 32.7259 142.426 32.7491 142.426 32.7652C142.426 32.7732 142.426 32.7795 142.426 32.7839L142.426 32.7892L142.426 32.7907L142.426 32.7913C142.426 32.7914 142.426 32.7916 142.154 32.7856C141.883 32.7795 141.883 32.7796 141.883 32.7797L141.883 32.7791L141.883 32.776C141.883 32.773 141.883 32.7681 141.883 32.7615C141.883 32.7483 141.883 32.7281 141.883 32.7013C141.882 32.6477 141.881 32.5678 141.876 32.4653C141.866 32.2603 141.845 31.9654 141.796 31.6102C141.698 30.8983 141.493 29.9508 141.063 28.9992C140.634 28.0484 139.984 27.0998 139.001 26.3739C138.019 25.6496 136.69 25.1355 134.88 25.0753C133.1 25.016 131.84 25.4722 130.942 26.1684C130.041 26.8674 129.481 27.8268 129.137 28.8114C128.793 29.7963 128.669 30.7937 128.633 31.5488C128.615 31.9254 128.618 32.2394 128.626 32.4585C128.63 32.568 128.635 32.6536 128.639 32.7112C128.641 32.74 128.643 32.7618 128.644 32.7761C128.645 32.7833 128.645 32.7886 128.646 32.7919L128.646 32.7954L128.646 32.7961Z" fill="#F4F7FA"/>
</g>
</g>
</g>
<g id="people-card-right">
<path id="Vector_34" d="M97.4238 50.2961C97.8685 49.618 98.119 48.831 98.1479 48.0205C98.2034 45.9085 96.6393 44.2635 96.4275 44.3583C96.3141 44.4096 96.4583 45.0275 96.5385 45.3014C96.7063 45.8723 96.8867 45.9272 96.8716 46.1897C96.8403 46.7292 96.0618 46.7497 95.6509 47.466C95.3552 47.9813 95.3311 48.7157 95.6509 49.2968C96.1783 50.2605 97.3737 50.2961 97.4238 50.2961Z" fill="#F9B384"/>
<path id="Vector_35" d="M130.864 96.1387L130.262 94.0683L132.774 92.2067L134.34 91.6213L133.413 94.5184L130.864 96.1387Z" fill="url(#paint3_linear_315_10)"/>
<path id="Vector_36" d="M127.754 137.839C127.754 137.839 129.128 141.296 128.766 142.829C130.242 142.8 131.196 142.612 131.196 142.612C131.196 142.612 130.603 141.036 130.488 140.255C130.331 139.199 130.343 137.492 130.343 137.492L127.754 137.839Z" fill="#F9B384"/>
<path id="Vector_37" d="M112.608 145.924C112.761 146.102 112.853 146.325 112.868 146.559C112.872 146.705 112.846 146.85 112.79 146.984C112.556 147.601 112.187 147.682 111.791 148.336C111.55 148.736 111.594 148.857 111.372 149.037C111.079 149.275 110.725 149.288 110.418 149.292C109.68 149.298 108.943 149.257 108.21 149.167C108.703 148.531 109.228 147.888 109.785 147.236C110.029 146.95 110.273 146.671 110.517 146.398L111.965 145.908L112.608 145.924Z" fill="#26264F"/>
<path id="Vector_38" d="M111.403 138.885C111.403 138.885 110.574 143.209 111.629 144.42C112.527 145.631 111.195 144.767 111.195 144.767L109.604 146.155L108.65 147.804C108.65 147.804 109.528 143.571 109.293 141.89C109.059 140.209 108.942 139.078 108.942 139.078L111.403 138.885Z" fill="#F9B384"/>
<path id="Vector_39" d="M108.278 91.5863C108.278 91.5863 106.052 93.5776 106.052 101.78C106.052 109.983 107.107 127.793 107.107 127.793L108.796 140.544C108.796 140.544 110.546 140.604 111.717 140.255C112.772 135.451 114.493 127.324 113.67 120.528C113.319 113.146 116.6 103.889 116.6 103.889C116.6 103.889 119.412 113.263 121.404 117.949C123.396 122.636 127.188 137.32 127.54 138.374C129.871 138.585 130.866 137.969 130.866 137.969C130.866 137.969 129.372 122.168 127.966 116.192C126.56 110.216 126.677 95.8037 124.333 91.7027C119.058 89.5943 108.278 91.5863 108.278 91.5863Z" fill="url(#paint4_linear_315_10)"/>
<path id="Vector_40" d="M108.278 91.5863C108.278 91.5863 106.052 93.5776 106.052 101.78C106.052 109.983 106.056 126.75 106.056 126.75L104.763 140.255C104.763 140.255 112.645 140.895 113.816 140.546C114.871 135.742 114.966 126.75 114.679 120.714C114.327 113.332 116.6 103.889 116.6 103.889C116.6 103.889 119.412 113.263 121.404 117.949C123.396 122.636 125.105 137.767 125.457 138.821C127.788 139.033 134.51 137.959 134.51 137.959C134.51 137.959 131.605 121.948 130.199 115.972C128.793 109.996 126.677 95.8037 124.333 91.7027C119.058 89.5943 108.278 91.5863 108.278 91.5863Z" fill="#40B6E2"/>
<path id="Vector_41" d="M128.405 144.141C128.405 144.141 128.063 144.141 128.091 144.583C128.12 145.026 127.937 146.547 129.678 146.618C131.418 146.689 131.687 146.497 131.744 146.497C131.8 146.497 131.288 145.042 131.288 145.042L130.731 144.329L129.233 144.172L128.405 144.141Z" fill="#26264F"/>
<path id="Vector_42" d="M132.265 145.668C132.228 145.301 132.023 144.722 131.816 144.257C131.508 143.565 131.76 143.306 131.467 142.677C131.365 142.459 131.266 142.255 131.052 142.048C131.002 142.001 130.522 141.557 129.822 141.579C129.621 141.578 129.423 141.624 129.244 141.715C128.974 141.859 128.839 142.077 128.723 142.265C128.542 142.563 128.584 142.655 128.301 143.508C128.254 143.647 128.218 143.788 128.191 143.931C128.168 144.056 128.153 144.183 128.145 144.31C128.602 144.31 130.357 144.382 130.728 144.653C131.098 144.925 131.285 145.381 131.285 145.837C131.285 146.293 131.513 146.508 131.741 146.494C131.948 146.484 132.353 146.104 132.265 145.668Z" fill="#444B8C"/>
<path id="Vector_43" d="M111.18 143.813C111.573 143.819 111.86 144.131 112.077 144.883C112.294 145.634 113.335 146.3 112.121 146.141C110.906 145.981 110.023 147.703 109.589 148.339C109.155 148.975 107.991 149.541 108.02 148.919C108.05 148.297 108.563 148.007 108.708 147.37C108.852 146.733 110.286 143.798 111.18 143.813Z" fill="#444B8C"/>
<path id="Vector_44" d="M131.785 92.5765C132.074 91.7746 133.873 86.5096 130.965 81.7086C128.585 77.7778 124.465 76.4955 123.878 76.3217C120.303 75.2657 118.507 76.6235 117.383 75.3737C115.468 73.2557 117.637 66.0392 121.831 64.5933C126.559 62.9641 132.231 69.2295 134.53 73.3432C137.547 78.7421 136.803 84.1079 136.629 85.2128C136.268 87.4716 135.492 89.6441 134.34 91.6201L131.785 92.5765Z" fill="#F96464"/>
<path id="Vector_45" d="M119.438 63.5747C115.218 63.4057 111.963 63.4727 110.124 65.3102C108.183 67.2508 110.145 69.4419 109.723 74.518C109.078 82.2897 104.126 84.1887 103.753 92.0733C103.66 94.141 103.888 96.2105 104.426 98.209C105.512 99.5625 107.292 101.473 109.917 103.07C113.738 105.395 115.952 104.989 121.44 106.491C130.414 108.947 131.216 111.873 135.663 111.127C140.161 110.374 144.107 106.589 143.628 104.511C143.343 103.266 141.53 103.619 139.442 101.72C136.752 99.2735 137.79 96.9376 135.744 94.3084C132.806 90.5315 128.713 92.8402 126.21 89.5672C123.675 86.2561 124.682 79.7311 126.817 76.1751C128.211 73.8524 128.808 71.1297 129.994 68.6924C130.14 68.3988 130.196 68.0692 130.157 67.7438C129.965 66.1574 127.321 65.2969 125.318 64.6663C122.264 63.705 119.785 63.5886 119.438 63.5747Z" fill="#FE7471"/>
<path id="Vector_46" d="M115.884 63.4004L116.716 63.1439C116.716 63.1439 116.934 64.2711 119.612 64.4111C120.497 64.412 121.357 64.1194 122.058 63.579L122.627 63.9936C122.627 63.9936 121.379 65.5522 119.394 65.5124C116.831 65.4623 115.884 63.4004 115.884 63.4004Z" fill="url(#paint5_linear_315_10)"/>
<path id="Vector_47" d="M117.579 59.9722C117.739 58.7346 118.717 57.9417 118.931 57.7715C119.825 57.0613 120.007 56.987 120.313 56.9315L120.736 56.8676H120.782C121.027 56.882 121.763 57.1693 121.897 57.2634C122.324 57.5651 122.009 59.6916 120.714 62.3383C120.663 62.5624 120.612 62.7865 120.561 63.0105C121.69 63.2091 121.97 63.413 121.979 63.5754C121.998 63.9278 120.762 64.3773 119.616 64.4063C118.18 64.4431 116.654 63.8246 116.683 63.3636C116.695 63.1771 116.966 62.9466 118.011 62.7203L118.499 62.033C118.347 61.8556 117.46 60.884 117.579 59.9722Z" fill="#F9B384"/>
<path id="Vector_48" d="M119.355 59.5064C119.68 59.3109 119.928 59.7303 119.777 60.0966C119.626 60.4628 119.108 60.6922 118.795 60.4737C118.481 60.2553 118.916 59.7701 119.355 59.5064Z" fill="#ED8A48"/>
<path id="Vector_49" d="M161.589 59.4997C157.3 54.8454 147.32 56.1204 141.785 59.8618C139.212 61.5991 137.892 63.6507 134.853 63.8227C132.543 63.9537 128.867 63.0847 126.931 60.5823C126.69 60.2667 125.712 58.9439 124.247 57.2766C123.602 56.541 122.959 55.8513 121.964 55.695C121.711 55.6558 120.87 55.5188 120.313 56.0619C119.863 56.5024 119.752 57.2688 119.886 57.8191C119.965 58.1492 120.067 58.1812 120.054 58.4002C120.013 59.0037 118.907 59.271 118.968 59.5769C119.012 59.7948 119.587 59.7151 119.686 59.9891C119.794 60.2908 119.163 60.5479 118.891 61.3034C118.383 61.6437 118.061 62.4909 117.95 63.6242C117.787 65.2903 117.955 66.6444 118.27 67.6672C119.79 72.5768 120.878 76.0882 123.509 78.0494C126.993 80.6442 130.13 78.2485 138.993 77.8683C151.129 77.3494 154.154 81.463 158.516 78.6486C163.963 75.1312 166.043 64.3326 161.589 59.4997Z" fill="url(#paint6_linear_315_10)"/>
<path id="Vector_50" d="M97.9368 49.9997C97.8288 51.0147 97.4625 55.5067 100.561 59.2993C103.458 62.8433 107.556 63.5511 108.318 63.6664C112.005 64.2234 113.594 62.6345 114.883 63.7171C117.068 65.554 115.908 72.9992 111.949 75.0014C107.489 77.2619 101.013 71.8309 98.1733 68.0691C94.4477 63.133 94.4495 57.7165 94.4713 56.5977C94.5199 54.311 94.9917 52.053 95.8628 49.9382C96.5425 49.7336 97.2702 49.7548 97.9368 49.9985V49.9997Z" fill="#F96464"/>
<path id="Vector_51" style="mix-blend-mode:multiply" opacity="0.3" d="M135.798 108.157C134.719 107.05 135.907 104.819 134.313 103.16C132.834 101.621 131.158 102.865 128.777 101.54C125.722 99.8408 126.564 96.7307 123.647 95.0586C121.549 93.8559 120.563 95.1491 117.3 94.5185C114.038 93.8879 110.078 91.6437 108.119 87.6314C107.376 86.0974 106.973 84.421 106.938 82.717C105.474 85.3342 103.954 87.8414 103.754 92.0733C103.662 94.141 103.888 96.2105 104.426 98.2091C105.512 99.5626 107.292 101.473 109.917 103.07C113.738 105.395 115.952 104.989 121.44 106.491C130.414 108.947 131.216 111.873 135.663 111.127C138.538 110.645 141.181 108.926 142.594 107.205C138.446 109.052 136.582 108.959 135.798 108.157Z" fill="url(#paint7_linear_315_10)"/>
</g>
<g id="cart-card-right">
<path id="Vector_52" d="M40.9469 148.868C40.9469 150.196 40.1274 151.278 39.116 151.278C38.1047 151.278 37.2846 150.199 37.2846 148.868C37.2846 147.538 38.1041 146.459 39.116 146.459C40.128 146.459 40.9469 147.538 40.9469 148.868Z" fill="url(#paint8_linear_315_10)"/>
<path id="Vector_53" d="M41.4574 148.891C41.4574 150.222 40.6373 151.3 39.6259 151.3C38.6146 151.3 37.7945 150.222 37.7945 148.891C37.7945 147.561 38.6146 146.482 39.6259 146.482C40.6373 146.482 41.4574 147.561 41.4574 148.891Z" fill="url(#paint9_linear_315_10)"/>
<path id="Vector_54" d="M40.3929 148.939C40.3929 149.497 40.0496 149.949 39.626 149.949C39.2024 149.949 38.8584 149.497 38.8584 148.939C38.8584 148.382 39.2018 147.93 39.626 147.93C40.0502 147.93 40.3929 148.382 40.3929 148.939Z" fill="url(#paint10_linear_315_10)"/>
<path id="Vector_55" d="M39.116 145.951V148.596C39.116 148.783 39.1901 148.961 39.3219 149.093C39.4538 149.225 39.6326 149.299 39.819 149.299V149.299C39.9297 149.299 40.0389 149.273 40.1376 149.223C40.2362 149.173 40.3217 149.1 40.3869 149.011L42.7662 145.752L39.116 145.951Z" fill="#C9CED6"/>
<path id="Vector_56" d="M60.5538 146.756C60.5538 148.084 59.7343 149.165 58.723 149.165C57.7116 149.165 56.8915 148.087 56.8915 146.756C56.8915 145.426 57.711 144.347 58.723 144.347C59.7349 144.347 60.5538 145.426 60.5538 146.756Z" fill="url(#paint11_linear_315_10)"/>
<path id="Vector_57" d="M61.0643 146.779C61.0643 148.106 60.2442 149.188 59.2329 149.188C58.2215 149.188 57.4014 148.109 57.4014 146.779C57.4014 145.448 58.2215 144.37 59.2329 144.37C60.2442 144.37 61.0643 145.448 61.0643 146.779Z" fill="url(#paint12_linear_315_10)"/>
<path id="Vector_58" d="M59.9998 146.827C59.9998 147.385 59.6565 147.837 59.2328 147.837C58.8092 147.837 58.4653 147.385 58.4653 146.827C58.4653 146.27 58.8086 145.818 59.2328 145.818C59.6571 145.818 59.9998 146.27 59.9998 146.827Z" fill="url(#paint13_linear_315_10)"/>
<path id="Vector_59" d="M58.723 143.838V146.484C58.7229 146.577 58.741 146.668 58.7763 146.753C58.8116 146.839 58.8634 146.916 58.9287 146.982C58.9939 147.047 59.0715 147.099 59.1568 147.134C59.2421 147.17 59.3336 147.188 59.426 147.188V147.188C59.5367 147.188 59.6459 147.162 59.7445 147.111C59.8432 147.061 59.9286 146.988 59.9938 146.899L62.3732 143.64L58.723 143.838Z" fill="#C9CED6"/>
<path id="Vector_60" d="M38.842 146.363C38.7243 146.356 38.6134 146.305 38.5304 146.221C38.4473 146.138 38.3978 146.026 38.3913 145.908C38.3848 145.791 38.4216 145.674 38.4949 145.582C38.5681 145.489 38.6727 145.427 38.7889 145.406L62.0086 142.79C62.6371 142.676 63.2203 142.386 63.6903 141.953C64.1604 141.52 64.4979 140.963 64.6637 140.347L73.7666 100.645C74.0195 99.7038 74.5598 98.8654 75.312 98.2464C76.0643 97.6274 76.991 97.2587 77.9629 97.1917L85.0231 96.7693C85.0898 96.7579 85.1582 96.7608 85.2238 96.7776C85.2893 96.7944 85.3506 96.8248 85.4037 96.8668C85.4567 96.9088 85.5003 96.9615 85.5317 97.0215C85.563 97.0814 85.5815 97.1473 85.5857 97.2149C85.59 97.2824 85.58 97.3501 85.5564 97.4135C85.5328 97.4769 85.4961 97.5347 85.4488 97.583C85.4014 97.6314 85.3444 97.6692 85.2815 97.6941C85.2185 97.719 85.1511 97.7304 85.0835 97.7275L78.0232 98.1499C77.2518 98.2038 76.5163 98.497 75.9194 98.9887C75.3225 99.4805 74.894 100.146 74.6935 100.893L65.59 140.596C65.3738 141.394 64.9342 142.114 64.323 142.671C63.7118 143.228 62.9543 143.599 62.1396 143.74L38.8927 146.36C38.8759 146.362 38.859 146.363 38.842 146.363V146.363Z" fill="#C9CED6"/>
<path id="Vector_61" d="M54.3734 128.617C54.2691 128.616 54.1677 128.582 54.0845 128.519C54.0013 128.456 53.9407 128.368 53.9117 128.268L48.444 109.136C48.4234 109.018 48.4471 108.897 48.5104 108.796C48.5738 108.695 48.6722 108.621 48.7869 108.588C48.9016 108.555 49.0244 108.566 49.1315 108.619C49.2387 108.671 49.3226 108.761 49.3672 108.872L54.8368 128.004C54.8567 128.076 54.86 128.151 54.8462 128.224C54.8324 128.297 54.802 128.365 54.7573 128.425C54.7127 128.484 54.655 128.532 54.5887 128.565C54.5224 128.599 54.4494 128.616 54.3752 128.617H54.3734Z" fill="#C2C2C2"/>
<path id="Vector_62" d="M59.966 127.817C59.8536 127.816 59.7449 127.776 59.6587 127.704C59.5726 127.632 59.5144 127.532 59.4941 127.421L56.1221 108.468C56.1133 108.348 56.149 108.23 56.2223 108.136C56.2956 108.041 56.4013 107.978 56.5189 107.957C56.6366 107.936 56.7578 107.959 56.8592 108.022C56.9605 108.086 57.0348 108.184 57.0677 108.299L60.4403 127.251C60.4618 127.377 60.433 127.505 60.3603 127.609C60.2875 127.713 60.1766 127.785 60.0517 127.808C60.0235 127.813 59.9948 127.816 59.966 127.817V127.817Z" fill="#C2C2C2"/>
<path id="Vector_63" d="M63.4424 127.196H63.4219C63.2949 127.19 63.1754 127.134 63.0893 127.04C63.0032 126.947 62.9575 126.823 62.9621 126.696L63.7405 107.944C63.7418 107.881 63.7559 107.818 63.7819 107.76C63.808 107.703 63.8455 107.651 63.8922 107.608C63.9389 107.565 63.9938 107.532 64.0536 107.51C64.1134 107.489 64.1769 107.48 64.2402 107.484C64.3672 107.49 64.4867 107.546 64.5728 107.64C64.6589 107.733 64.7046 107.857 64.7 107.984L63.9222 126.736C63.9163 126.859 63.8633 126.976 63.774 127.062C63.6848 127.147 63.5661 127.195 63.4424 127.196Z" fill="#C2C2C2"/>
<path id="Vector_64" d="M46.7435 129.317C46.643 129.316 46.5451 129.285 46.4636 129.226C46.382 129.167 46.3208 129.084 46.2885 128.989L39.8715 109.848C39.8436 109.787 39.8289 109.72 39.8284 109.652C39.8279 109.585 39.8415 109.518 39.8685 109.456C39.8954 109.394 39.9351 109.338 39.9849 109.293C40.0347 109.247 40.0936 109.212 40.1576 109.191C40.2217 109.169 40.2896 109.162 40.3568 109.168C40.4241 109.174 40.4893 109.195 40.5481 109.228C40.607 109.261 40.6582 109.306 40.6985 109.361C40.7389 109.415 40.7673 109.477 40.7821 109.543L47.1991 128.683C47.2228 128.755 47.229 128.832 47.2174 128.907C47.2058 128.982 47.1765 129.053 47.1321 129.115C47.0877 129.177 47.0294 129.227 46.9619 129.262C46.8943 129.297 46.8195 129.315 46.7435 129.316V129.317Z" fill="#C9CED6"/>
<path id="Vector_65" d="M101.55 99.3947C101.524 99.3947 101.497 99.3935 101.471 99.3911L85.6689 98.0919C85.4151 98.071 85.1799 97.9501 85.0152 97.7559C84.8505 97.5616 84.7697 97.3099 84.7906 97.0561C84.8115 96.8023 84.9323 96.5671 85.1266 96.4024C85.3208 96.2377 85.5726 96.1569 85.8264 96.1778L101.628 97.477C101.874 97.4984 102.103 97.6138 102.266 97.7993C102.429 97.9848 102.515 98.2261 102.505 98.473C102.495 98.7199 102.39 98.9535 102.212 99.1252C102.034 99.2968 101.797 99.3933 101.55 99.3947V99.3947Z" fill="url(#paint14_linear_315_10)"/>
<path id="Vector_66" d="M57.5263 151.949C57.5263 153.279 56.7062 154.358 55.6948 154.358C54.6835 154.358 53.8634 153.279 53.8634 151.949C53.8634 150.618 54.6835 149.54 55.6948 149.54C56.7062 149.54 57.5263 150.618 57.5263 151.949Z" fill="url(#paint15_linear_315_10)"/>
<path id="Vector_67" d="M58.0351 151.972C58.0351 153.299 57.215 154.381 56.2036 154.381C55.1923 154.381 54.3722 153.302 54.3722 151.972C54.3722 150.642 55.1923 149.562 56.2036 149.562C57.215 149.562 58.0351 150.641 58.0351 151.972Z" fill="url(#paint16_linear_315_10)"/>
<path id="Vector_68" d="M56.9718 152.02C56.9718 152.578 56.6285 153.029 56.2049 153.029C55.7813 153.029 55.4403 152.579 55.4403 152.02C55.4403 151.461 55.7843 151.01 56.2079 151.01C56.6315 151.01 56.9718 151.462 56.9718 152.02Z" fill="url(#paint17_linear_315_10)"/>
<path id="Vector_69" d="M55.6949 149.031V151.674C55.6948 151.766 55.7129 151.857 55.7482 151.943C55.7835 152.028 55.8353 152.106 55.9006 152.171C55.9659 152.236 56.0434 152.288 56.1287 152.324C56.2141 152.359 56.3055 152.377 56.3979 152.377V152.377C56.5086 152.377 56.6177 152.351 56.7163 152.301C56.815 152.251 56.9004 152.178 56.9657 152.089L59.3451 148.83L55.6949 149.031Z" fill="#BFC8D6"/>
<path id="Vector_70" d="M74.5016 150.249C74.5016 151.577 73.6815 152.658 72.6702 152.658C71.6588 152.658 70.8387 151.58 70.8387 150.249C70.8387 148.919 71.6588 147.841 72.6702 147.841C73.6815 147.841 74.5016 148.919 74.5016 150.249Z" fill="url(#paint18_linear_315_10)"/>
<path id="Vector_71" d="M75.0115 150.272C75.0115 151.602 74.1914 152.681 73.1801 152.681C72.1687 152.681 71.3486 151.602 71.3486 150.272C71.3486 148.941 72.1687 147.863 73.1801 147.863C74.1914 147.863 75.0115 148.942 75.0115 150.272Z" fill="url(#paint19_linear_315_10)"/>
<path id="Vector_72" d="M73.9477 150.321C73.9477 150.878 73.6037 151.33 73.1801 151.33C72.7565 151.33 72.4125 150.878 72.4125 150.321C72.4125 149.763 72.7565 149.311 73.1801 149.311C73.6037 149.311 73.9477 149.763 73.9477 150.321Z" fill="url(#paint20_linear_315_10)"/>
<path id="Vector_73" d="M72.6702 147.332V149.977C72.6702 150.163 72.7442 150.342 72.876 150.474C73.0079 150.606 73.1867 150.68 73.3732 150.68V150.68C73.4838 150.68 73.5929 150.654 73.6916 150.604C73.7903 150.554 73.8757 150.481 73.941 150.392L76.3204 147.133L72.6702 147.332Z" fill="#BFC8D6"/>
<path id="Vector_74" d="M30.995 110.615C30.8761 110.606 30.7646 110.554 30.6819 110.468C30.5991 110.382 30.551 110.269 30.5468 110.15C30.5426 110.031 30.5826 109.914 30.6591 109.823C30.7356 109.732 30.8432 109.672 30.9612 109.655L72.3148 106.678C72.3533 106.676 72.392 106.678 72.4301 106.684L89.5496 109.6C89.6647 109.632 89.7638 109.706 89.8278 109.807C89.8918 109.907 89.9162 110.028 89.8961 110.146C89.8761 110.264 89.8131 110.37 89.7193 110.444C89.6256 110.518 89.5077 110.555 89.3885 110.547L72.3257 107.64L31.03 110.613L30.995 110.615Z" fill="#C9CED6"/>
<path id="Vector_75" d="M84.1205 129.975C84.0958 129.975 84.0712 129.973 84.0469 129.969L67.2007 127.384L41.5709 129.851C41.5046 129.864 41.4363 129.864 41.3702 129.849C41.3042 129.834 41.242 129.806 41.1877 129.766C41.1333 129.726 41.088 129.674 41.0547 129.616C41.0214 129.557 41.0009 129.492 40.9944 129.424C40.9879 129.357 40.9956 129.289 41.017 129.225C41.0384 129.161 41.0731 129.102 41.1187 129.052C41.1644 129.002 41.22 128.962 41.282 128.935C41.344 128.908 41.4109 128.895 41.4785 128.895L67.1681 126.421C67.2083 126.417 67.2489 126.418 67.2888 126.425L84.1941 129.019C84.3093 129.043 84.4121 129.107 84.483 129.201C84.554 129.295 84.5883 129.411 84.5795 129.529C84.5706 129.646 84.5193 129.756 84.4352 129.838C84.351 129.92 84.2397 129.969 84.1223 129.975H84.1205Z" fill="#C9CED6"/>
<path id="Vector_76" d="M67.0177 104.611C66.8506 104.648 66.6907 104.504 66.6678 104.34C66.249 101.408 65.0536 98.2157 63.3259 96.0162C61.7793 94.0478 60.5869 93.1939 58.3319 92.8029H58.2776C53.5424 92.2996 53.2811 103.344 53.3209 104.872C53.3849 107.341 53.1876 105.421 52.9987 105.63C52.8098 105.838 52.665 106.558 52.6282 105.247C52.531 101.758 52.8792 92.4752 58.2251 92.0793C58.2251 92.0793 58.2582 92.0793 58.2613 92.0793C60.7993 92.4215 62.1619 93.3725 63.8841 95.5491C65.6902 97.8319 66.9242 101.11 67.3237 104.161C67.3466 104.336 67.235 104.561 67.0485 104.607L67.0177 104.611Z" fill="url(#paint21_linear_315_10)"/>
<path id="Vector_77" d="M45.1396 130.074C47.6861 130.958 50.7854 131.401 53.4302 132.311C54.3547 128.284 55.961 124.399 57.247 120.479C54.7662 115.074 52.656 109.5 49.8651 104.243L47.9021 104.8C47.6348 113.587 45.8692 120.46 44.1662 128.852C44.0202 129.571 44.3919 129.813 45.1396 130.074Z" fill="#E54C4C"/>
<path id="Vector_78" style="mix-blend-mode:multiply" opacity="0.3" d="M57.2469 120.48C54.7668 115.073 52.6559 109.501 49.8651 104.243C49.4831 104.38 49.092 104.406 48.7185 104.616C48.7252 105.805 48.9708 108.989 49.0878 109.89C49.579 113.661 51.0472 117.389 50.5065 120.759C50.0642 123.518 48.4759 124.288 48.4796 126.781C48.4838 129.47 50.7322 130.966 52.8937 132.147C53.0989 132.198 53.2558 132.251 53.4404 132.311C54.3444 128.285 55.9658 124.398 57.2469 120.48Z" fill="url(#paint22_linear_315_10)"/>
<path id="Vector_79" d="M49.8651 104.243C58.6222 104.364 66.0976 103.768 74.7153 102.43C78.4095 111.621 80.9397 120.356 83.7017 129.818C74.0147 130.208 62.9513 130.772 53.4375 132.31C51.2609 123.439 51.7593 113.355 49.8651 104.243Z" fill="#F96464"/>
<path id="Vector_80" d="M57.9046 106.191C57.5462 105.506 57.933 107.223 57.4925 105.708C56.6585 102.841 55.3563 97.8368 57.0544 94.5131C57.5462 93.5506 58.6837 92.6678 59.7481 92.389C65.2449 90.9534 69.0218 100.042 70.2407 103.627C70.6511 104.834 70.3011 104.298 70.0277 104.095C69.7544 103.892 70.3699 106.092 69.4713 103.538C68.8486 101.767 64.6638 91.2195 59.9509 93.1523C59.091 93.5047 58.1846 94.2771 57.7073 94.8878C55.897 97.2032 57.7309 104.12 58.009 105.091C58.7392 107.64 57.8811 105.115 57.9837 106.188C58 106.34 57.9644 106.305 57.9046 106.191Z" fill="url(#paint23_linear_315_10)"/>
<path id="Vector_81" d="M58.8539 106.2C58.8943 106.734 58.5335 107.199 57.9898 107.235C57.4461 107.271 57.0333 106.85 56.9929 106.319C56.9525 105.788 57.3025 105.324 57.8456 105.293C58.3887 105.263 58.8129 105.665 58.8539 106.2Z" fill="url(#paint24_linear_315_10)"/>
<path id="Vector_82" d="M71.0856 104.343C71.1121 104.88 70.7676 105.404 70.2408 105.538C69.714 105.672 69.3036 105.276 69.2753 104.747C69.2469 104.218 69.6047 103.693 70.1394 103.593C70.674 103.494 71.0596 103.806 71.0856 104.343Z" fill="url(#paint25_linear_315_10)"/>
<path id="Vector_83" d="M45.0466 114.88C44.9994 114.88 44.9524 114.873 44.9072 114.86L30.8562 110.593C30.7898 110.581 30.7269 110.554 30.6715 110.515C30.6161 110.476 30.5695 110.427 30.5346 110.369C30.4997 110.311 30.4774 110.246 30.469 110.179C30.4607 110.112 30.4665 110.044 30.4861 109.979C30.5057 109.915 30.5387 109.855 30.5829 109.804C30.6271 109.753 30.6816 109.711 30.7427 109.683C30.8039 109.654 30.8704 109.638 30.938 109.637C31.0055 109.635 31.0726 109.648 31.1349 109.674L45.0949 113.913L89.4222 109.595C89.4884 109.582 89.5567 109.583 89.6227 109.597C89.6887 109.612 89.7508 109.64 89.8052 109.68C89.8595 109.72 89.9048 109.772 89.9382 109.83C89.9715 109.889 89.9921 109.954 89.9987 110.021C90.0053 110.089 89.9977 110.157 89.9764 110.221C89.955 110.285 89.9205 110.344 89.875 110.394C89.8295 110.444 89.774 110.483 89.7121 110.511C89.6502 110.538 89.5833 110.552 89.5157 110.551L45.0937 114.878C45.078 114.88 45.0623 114.88 45.0466 114.88Z" fill="#BFC8D6"/>
<path id="Vector_84" d="M53.5745 132.879C53.4836 132.879 53.3947 132.853 53.318 132.804C53.2412 132.756 53.1798 132.686 53.1406 132.604L44.6128 114.606C44.5727 114.493 44.5758 114.369 44.6217 114.259C44.6676 114.148 44.7529 114.059 44.8611 114.007C44.9693 113.956 45.0926 113.947 45.2072 113.982C45.3218 114.016 45.4194 114.092 45.4811 114.195L53.8647 131.889L84.074 129.016C84.1403 129.003 84.2087 129.003 84.2748 129.018C84.3408 129.033 84.4031 129.061 84.4574 129.102C84.5118 129.142 84.5571 129.193 84.5903 129.252C84.6236 129.311 84.6441 129.376 84.6505 129.444C84.657 129.511 84.6491 129.579 84.6276 129.643C84.6061 129.707 84.5713 129.766 84.5255 129.816C84.4797 129.866 84.424 129.905 84.3619 129.932C84.2998 129.959 84.2328 129.973 84.1651 129.972L53.6203 132.876C53.6046 132.878 53.5895 132.879 53.5745 132.879Z" fill="#BFC8D6"/>
<path id="Vector_85" d="M53.575 132.879C53.5354 132.879 53.4959 132.874 53.4574 132.865L41.4079 129.839C41.3442 129.822 41.2846 129.793 41.2328 129.752C41.1809 129.712 41.1378 129.661 41.1062 129.604L30.5744 110.365C30.5379 110.309 30.5134 110.246 30.5023 110.181C30.4912 110.115 30.4939 110.048 30.5101 109.983C30.5263 109.918 30.5558 109.858 30.5966 109.805C30.6373 109.752 30.6886 109.709 30.7471 109.677C30.8056 109.645 30.8701 109.625 30.9365 109.619C31.0029 109.614 31.0697 109.622 31.1329 109.643C31.196 109.664 31.254 109.699 31.3033 109.743C31.3526 109.788 31.3921 109.843 31.4192 109.904L41.8478 128.958L53.6903 131.933C53.8006 131.965 53.8959 132.035 53.9591 132.131C54.0224 132.226 54.0494 132.342 54.0354 132.456C54.0213 132.569 53.9672 132.675 53.8826 132.752C53.798 132.83 53.6885 132.875 53.5738 132.879H53.575Z" fill="#BFC8D6"/>
<path id="Vector_86" d="M48.1483 121.427C48.1028 121.427 48.0575 121.42 48.0137 121.408L34.7797 117.529C34.6693 117.483 34.5796 117.399 34.5279 117.291C34.4762 117.184 34.4661 117.061 34.4998 116.946C34.5334 116.832 34.6082 116.734 34.7098 116.671C34.8115 116.608 34.9327 116.586 35.0501 116.607L48.199 120.46L87.2764 117.053C87.3956 117.055 87.5097 117.101 87.5967 117.183C87.6838 117.264 87.7377 117.375 87.748 117.493C87.7584 117.612 87.7244 117.731 87.6527 117.826C87.581 117.921 87.4767 117.986 87.3597 118.009L48.193 121.425C48.1767 121.426 48.1622 121.427 48.1483 121.427Z" fill="#BFC8D6"/>
<path id="Vector_87" d="M51.3815 128.251C51.3379 128.251 51.2944 128.244 51.2524 128.232L38.5742 124.681C38.5077 124.67 38.4444 124.644 38.3883 124.607C38.3322 124.569 38.2846 124.52 38.2486 124.463C38.2126 124.406 38.189 124.342 38.1792 124.275C38.1694 124.209 38.1738 124.141 38.192 124.076C38.2102 124.011 38.2418 123.95 38.2848 123.898C38.3278 123.846 38.3812 123.804 38.4416 123.774C38.502 123.743 38.5681 123.726 38.6355 123.723C38.7029 123.72 38.7702 123.732 38.8331 123.756L51.4268 127.284L85.3599 124.316C85.4262 124.303 85.4944 124.305 85.5601 124.32C85.6257 124.335 85.6874 124.364 85.7412 124.405C85.795 124.446 85.8396 124.498 85.8722 124.557C85.9048 124.616 85.9247 124.681 85.9305 124.748C85.9364 124.815 85.9281 124.883 85.9062 124.947C85.8843 125.011 85.8492 125.069 85.8033 125.118C85.7574 125.168 85.7016 125.207 85.6396 125.234C85.5776 125.26 85.5106 125.274 85.4432 125.273L51.4238 128.249C51.4099 128.25 51.3972 128.251 51.3815 128.251Z" fill="#BFC8D6"/>
<path id="Vector_88" d="M59.8115 132.286C59.7083 132.285 59.6078 132.252 59.5251 132.19C59.4423 132.128 59.3816 132.041 59.3517 131.942L53.9129 113.697C53.89 113.579 53.9118 113.457 53.9738 113.355C54.0359 113.252 54.134 113.176 54.2489 113.142C54.3638 113.108 54.4873 113.118 54.5954 113.169C54.7035 113.221 54.7885 113.311 54.8338 113.422L60.272 131.668C60.3077 131.791 60.2938 131.922 60.2333 132.034C60.1729 132.145 60.0708 132.229 59.9491 132.266C59.9044 132.279 59.8581 132.286 59.8115 132.286V132.286Z" fill="#BFC8D6"/>
<path id="Vector_89" d="M65.8272 131.714C65.7146 131.713 65.6057 131.673 65.5194 131.601C65.4331 131.528 65.3748 131.428 65.3547 131.317L62.0961 112.832C62.0779 112.767 62.0735 112.699 62.0832 112.632C62.0928 112.565 62.1164 112.501 62.1523 112.444C62.1882 112.387 62.2357 112.338 62.2916 112.3C62.3476 112.263 62.4108 112.237 62.4773 112.226C62.5437 112.214 62.6118 112.216 62.6772 112.233C62.7427 112.249 62.804 112.279 62.8572 112.32C62.9105 112.361 62.9545 112.414 62.9863 112.473C63.0182 112.532 63.0373 112.598 63.0423 112.665L66.3009 131.15C66.3223 131.276 66.2934 131.404 66.2204 131.509C66.1474 131.613 66.0363 131.684 65.9111 131.707C65.8834 131.711 65.8553 131.714 65.8272 131.714Z" fill="#BFC8D6"/>
<path id="Vector_90" d="M72.6123 130.941C72.4898 130.941 72.3722 130.893 72.2833 130.809C72.1943 130.725 72.1406 130.61 72.1331 130.488L71.1073 112.133C71.1129 112.014 71.1626 111.901 71.2467 111.816C71.3307 111.731 71.4433 111.681 71.5625 111.674C71.6818 111.667 71.7992 111.705 71.8923 111.78C71.9853 111.855 72.0472 111.962 72.0662 112.08L73.092 130.434C73.0984 130.561 73.0545 130.686 72.9698 130.781C72.8851 130.875 72.7663 130.933 72.6394 130.941L72.6123 130.941Z" fill="#BFC8D6"/>
<path id="Vector_91" d="M79.0413 130.222H79.016C78.889 130.215 78.77 130.158 78.6849 130.063C78.5998 129.968 78.5555 129.844 78.5616 129.717L79.5392 111.071C79.5572 110.952 79.6186 110.845 79.7115 110.769C79.8043 110.694 79.922 110.655 80.0416 110.661C80.1612 110.668 80.2742 110.718 80.3587 110.803C80.4431 110.888 80.493 111.001 80.4986 111.121L79.5205 129.767C79.5134 129.89 79.4599 130.005 79.3709 130.089C79.2819 130.174 79.1641 130.221 79.0413 130.222Z" fill="#BFC8D6"/>
<path id="Vector_92" d="M49.9302 131.964C49.8399 131.963 49.7515 131.938 49.6751 131.89C49.5986 131.842 49.5371 131.773 49.4976 131.692L40.7079 113.422C40.6724 113.365 40.6494 113.3 40.6404 113.233C40.6314 113.166 40.6366 113.098 40.6556 113.033C40.6746 112.968 40.707 112.908 40.7508 112.857C40.7945 112.805 40.8486 112.763 40.9095 112.734C40.9705 112.705 41.0369 112.689 41.1045 112.686C41.1721 112.684 41.2393 112.697 41.3019 112.722C41.3645 112.748 41.421 112.786 41.4677 112.835C41.5144 112.884 41.5504 112.942 41.5732 113.006L50.3629 131.277C50.3983 131.351 50.4145 131.432 50.41 131.513C50.4055 131.594 50.3804 131.673 50.3372 131.742C50.2939 131.81 50.2339 131.867 50.1627 131.906C50.0915 131.946 50.0115 131.966 49.9302 131.966V131.964Z" fill="#BFC8D6"/>
<path id="Vector_93" d="M45.0473 130.737C44.958 130.737 44.8706 130.712 44.7946 130.665C44.7187 130.619 44.6572 130.552 44.617 130.472L35.2855 111.782C35.2433 111.67 35.2441 111.546 35.2877 111.435C35.3313 111.324 35.4146 111.233 35.5215 111.179C35.6284 111.126 35.7513 111.114 35.8664 111.146C35.9816 111.178 36.0807 111.252 36.1448 111.353L45.4751 130.043C45.5313 130.157 45.5402 130.288 45.5 130.409C45.4598 130.529 45.3736 130.629 45.2603 130.687C45.1943 130.72 45.1213 130.737 45.0473 130.737Z" fill="#BFC8D6"/>
<path id="Vector_94" d="M55.6026 149.77C55.542 149.77 55.4821 149.759 55.4258 149.737L38.6647 146.328C38.559 146.272 38.4776 146.18 38.4361 146.068C38.3946 145.956 38.396 145.833 38.44 145.722C38.484 145.611 38.5675 145.52 38.6744 145.468C38.7813 145.415 38.904 145.403 39.0189 145.435L55.6647 148.799L76.6342 146.237C77.3617 146.15 78.0467 145.848 78.6016 145.37C79.1564 144.891 79.5557 144.258 79.7485 143.551L91.2434 101.82C91.5011 100.889 92.0402 100.061 92.7868 99.448C93.5334 98.8354 94.4511 98.4684 95.4144 98.3973L101.513 97.955C101.633 97.9582 101.747 98.0058 101.834 98.0885C101.92 98.1712 101.973 98.2832 101.982 98.4027C101.991 98.5221 101.954 98.6405 101.881 98.7349C101.807 98.8292 101.701 98.8928 101.583 98.9132L95.485 99.3555C94.7195 99.4118 93.9901 99.7034 93.3968 100.19C92.8034 100.677 92.375 101.335 92.1703 102.075L80.6754 143.806C80.4322 144.696 79.9291 145.494 79.2305 146.097C78.5318 146.699 77.6693 147.08 76.7531 147.191L55.6629 149.767C55.6418 149.769 55.6213 149.77 55.6026 149.77Z" fill="#BFC8D6"/>
</g>
</g>
<defs>
<linearGradient id="paint0_linear_315_10" x1="63.3224" y1="55.1344" x2="22.1407" y2="59.9028" gradientUnits="userSpaceOnUse">
<stop stop-color="#444B8C"/>
<stop offset="0.39" stop-color="#383C74"/>
<stop offset="1" stop-color="#26264F"/>
</linearGradient>
<linearGradient id="paint1_linear_315_10" x1="133.41" y1="-20.4914" x2="22.8698" y2="147.703" gradientUnits="userSpaceOnUse">
<stop stop-color="#444B8C"/>
<stop offset="1" stop-color="#26264F"/>
</linearGradient>
<linearGradient id="paint2_linear_315_10" x1="119.262" y1="0.971107" x2="-9.91806" y2="190.407" gradientUnits="userSpaceOnUse">
<stop stop-color="#AA80F9"/>
<stop offset="1" stop-color="#6165D7"/>
</linearGradient>
<linearGradient id="paint3_linear_315_10" x1="131.959" y1="92.5579" x2="132.934" y2="94.5637" gradientUnits="userSpaceOnUse">
<stop stop-color="#FFC444"/>
<stop offset="1" stop-color="#F36F56"/>
</linearGradient>
<linearGradient id="paint4_linear_315_10" x1="106.052" y1="115.641" x2="130.863" y2="115.641" gradientUnits="userSpaceOnUse">
<stop stop-color="#311944"/>
<stop offset="1" stop-color="#893976"/>
</linearGradient>
<linearGradient id="paint5_linear_315_10" x1="116.896" y1="59.9626" x2="120.56" y2="65.7864" gradientUnits="userSpaceOnUse">
<stop stop-color="#FFC444"/>
<stop offset="1" stop-color="#F36F56"/>
</linearGradient>
<linearGradient id="paint6_linear_315_10" x1="118.697" y1="31.2461" x2="152.445" y2="84.8857" gradientUnits="userSpaceOnUse">
<stop stop-color="#444B8C"/>
<stop offset="1" stop-color="#26264F"/>
</linearGradient>
<linearGradient id="paint7_linear_315_10" x1="105.777" y1="66.242" x2="124.95" y2="105.669" gradientUnits="userSpaceOnUse">
<stop stop-color="#FFC444"/>
<stop offset="1" stop-color="#F36F56"/>
</linearGradient>
<linearGradient id="paint8_linear_315_10" x1="37.1374" y1="147.205" x2="38.1505" y2="148.057" gradientUnits="userSpaceOnUse">
<stop stop-color="#AA80F9"/>
<stop offset="1" stop-color="#6165D7"/>
</linearGradient>
<linearGradient id="paint9_linear_315_10" x1="37.7945" y1="148.891" x2="41.4574" y2="148.891" gradientUnits="userSpaceOnUse">
<stop stop-color="#AA80F9"/>
<stop offset="1" stop-color="#6165D7"/>
</linearGradient>
<linearGradient id="paint10_linear_315_10" x1="38.8584" y1="148.939" x2="40.3929" y2="148.939" gradientUnits="userSpaceOnUse">
<stop stop-color="#40447E"/>
<stop offset="1" stop-color="#3C3B6B"/>
</linearGradient>
<linearGradient id="paint11_linear_315_10" x1="56.7443" y1="145.093" x2="57.7575" y2="145.945" gradientUnits="userSpaceOnUse">
<stop stop-color="#AA80F9"/>
<stop offset="1" stop-color="#6165D7"/>
</linearGradient>
<linearGradient id="paint12_linear_315_10" x1="57.4014" y1="146.779" x2="61.0643" y2="146.779" gradientUnits="userSpaceOnUse">
<stop stop-color="#AA80F9"/>
<stop offset="1" stop-color="#6165D7"/>
</linearGradient>
<linearGradient id="paint13_linear_315_10" x1="58.4653" y1="146.827" x2="59.9998" y2="146.827" gradientUnits="userSpaceOnUse">
<stop stop-color="#40447E"/>
<stop offset="1" stop-color="#3C3B6B"/>
</linearGradient>
<linearGradient id="paint14_linear_315_10" x1="84.7867" y1="97.7841" x2="102.51" y2="97.7841" gradientUnits="userSpaceOnUse">
<stop stop-color="#40447E"/>
<stop offset="1" stop-color="#3C3B6B"/>
</linearGradient>
<linearGradient id="paint15_linear_315_10" x1="53.7162" y1="150.285" x2="54.7293" y2="151.137" gradientUnits="userSpaceOnUse">
<stop stop-color="#AA80F9"/>
<stop offset="1" stop-color="#6165D7"/>
</linearGradient>
<linearGradient id="paint16_linear_315_10" x1="54.3734" y1="151.972" x2="58.0363" y2="151.972" gradientUnits="userSpaceOnUse">
<stop stop-color="#AA80F9"/>
<stop offset="1" stop-color="#6165D7"/>
</linearGradient>
<linearGradient id="paint17_linear_315_10" x1="55.4373" y1="152.02" x2="56.9718" y2="152.02" gradientUnits="userSpaceOnUse">
<stop stop-color="#40447E"/>
<stop offset="1" stop-color="#3C3B6B"/>
</linearGradient>
<linearGradient id="paint18_linear_315_10" x1="70.6915" y1="148.586" x2="71.7047" y2="149.438" gradientUnits="userSpaceOnUse">
<stop stop-color="#AA80F9"/>
<stop offset="1" stop-color="#6165D7"/>
</linearGradient>
<linearGradient id="paint19_linear_315_10" x1="71.3486" y1="150.272" x2="75.0115" y2="150.272" gradientUnits="userSpaceOnUse">
<stop stop-color="#AA80F9"/>
<stop offset="1" stop-color="#6165D7"/>
</linearGradient>
<linearGradient id="paint20_linear_315_10" x1="72.4125" y1="150.321" x2="73.9477" y2="150.321" gradientUnits="userSpaceOnUse">
<stop stop-color="#40447E"/>
<stop offset="1" stop-color="#3C3B6B"/>
</linearGradient>
<linearGradient id="paint21_linear_315_10" x1="46.6909" y1="99.5028" x2="58.782" y2="98.9772" gradientUnits="userSpaceOnUse">
<stop stop-color="#311944"/>
<stop offset="1" stop-color="#893976"/>
</linearGradient>
<linearGradient id="paint22_linear_315_10" x1="48.4771" y1="118.276" x2="57.2469" y2="118.276" gradientUnits="userSpaceOnUse">
<stop stop-color="#FF9085"/>
<stop offset="1" stop-color="#FB6FBB"/>
</linearGradient>
<linearGradient id="paint23_linear_315_10" x1="64.8062" y1="88.4437" x2="59.4844" y2="133.87" gradientUnits="userSpaceOnUse">
<stop stop-color="#311944"/>
<stop offset="1" stop-color="#893976"/>
</linearGradient>
<linearGradient id="paint24_linear_315_10" x1="67.64" y1="87.7726" x2="53.1778" y2="115.286" gradientUnits="userSpaceOnUse">
<stop stop-color="#311944"/>
<stop offset="1" stop-color="#893976"/>
</linearGradient>
<linearGradient id="paint25_linear_315_10" x1="77.6745" y1="90.2919" x2="62.0992" y2="119.924" gradientUnits="userSpaceOnUse">
<stop stop-color="#311944"/>
<stop offset="1" stop-color="#893976"/>
</linearGradient>
</defs>
</svg>
