<svg width="61" height="63" viewBox="0 0 61 63" fill="none" xmlns="http://www.w3.org/2000/svg">
<g id="facebook">
<path id="Vector" opacity="0.8" d="M30.1523 62.3538C46.7208 62.3538 60.1523 48.9223 60.1523 32.3538C60.1523 15.7852 46.7208 2.35376 30.1523 2.35376C13.5837 2.35376 0.152283 15.7852 0.152283 32.3538C0.152283 48.9223 13.5837 62.3538 30.1523 62.3538Z" fill="url(#paint0_radial_152_181)"/>
<g id="Group">
<path id="Vector_2" d="M43.2407 20.4028C43.2407 9.13535 34.1067 0 22.8393 0C11.5718 0 2.43787 9.13396 2.43787 20.4028C2.43787 30.5861 9.89881 39.0265 19.6523 40.5558V26.2995H14.4714V20.4028H19.6523V15.907C19.6523 10.7944 22.6983 7.97023 27.3574 7.97023C29.59 7.97023 31.9244 8.3693 31.9244 8.3693V13.3898H29.3514C26.8174 13.3898 26.0262 14.9623 26.0262 16.5767V20.4042H31.6844L30.7802 26.3009H26.0276V40.5572C35.7797 39.0251 43.2407 30.5847 43.2407 20.4028Z" fill="black"/>
<path id="Vector_3" d="M30.7802 26.2994L31.6844 20.4027H26.0262V16.5753C26.0262 14.9608 26.816 13.3883 29.3514 13.3883H31.9244V8.36782C31.9244 8.36782 29.5886 7.96875 27.3574 7.96875C22.697 7.96875 19.6523 10.7929 19.6523 15.9055V20.4013H14.4714V26.2981H19.6523V40.5543C20.6904 40.7176 21.7551 40.8027 22.8393 40.8027C23.9235 40.8027 24.9881 40.7176 26.0276 40.5543V26.2994H30.7802Z" fill="white"/>
</g>
</g>
<defs>
<radialGradient id="paint0_radial_152_181" cx="0" cy="0" r="1" gradientUnits="userSpaceOnUse" gradientTransform="translate(30.152 32.3531) scale(30)">
<stop stop-color="#000056"/>
<stop offset="0.2482" stop-color="#4C4C88" stop-opacity="0.7518"/>
<stop offset="0.5193" stop-color="#9898BB" stop-opacity="0.4807"/>
<stop offset="0.744" stop-color="#D0D0E0" stop-opacity="0.256"/>
<stop offset="0.9103" stop-color="#F2F2F6" stop-opacity="0.0897"/>
<stop offset="1" stop-color="white" stop-opacity="0"/>
</radialGradient>
</defs>
</svg>
