<svg width="61" height="64" viewBox="0 0 61 64" fill="none" xmlns="http://www.w3.org/2000/svg">
<g id="instagram">
<g id="Group">
<path id="Vector" opacity="0.8" d="M30.1523 63.0957C46.7208 63.0957 60.1523 49.6642 60.1523 33.0957C60.1523 16.5272 46.7208 3.0957 30.1523 3.0957C13.5837 3.0957 0.152283 16.5272 0.152283 33.0957C0.152283 49.6642 13.5837 63.0957 30.1523 63.0957Z" fill="url(#paint0_radial_152_176)"/>
<path id="Vector_2" d="M22.0766 41.7743C33.6122 41.7743 42.9637 32.4228 42.9637 20.8871C42.9637 9.35149 33.6122 0 22.0766 0C10.5409 0 1.18945 9.35149 1.18945 20.8871C1.18945 32.4228 10.5409 41.7743 22.0766 41.7743Z" fill="black"/>
<path id="Vector_3" d="M28.5594 15.8573C29.3523 15.8573 29.9951 15.2145 29.9951 14.4216C29.9951 13.6286 29.3523 12.9858 28.5594 12.9858C27.7665 12.9858 27.1237 13.6286 27.1237 14.4216C27.1237 15.2145 27.7665 15.8573 28.5594 15.8573Z" fill="white"/>
<path id="Vector_4" d="M22.178 14.8274C18.8523 14.8274 16.1465 17.5331 16.1465 20.8588C16.1465 24.1845 18.8523 26.8903 22.178 26.8903C25.5037 26.8903 28.2094 24.1845 28.2094 20.8588C28.2094 17.5331 25.5037 14.8274 22.178 14.8274ZM22.178 24.7217C20.048 24.7217 18.3151 22.9888 18.3151 20.8574C18.3151 18.726 20.048 16.9945 22.178 16.9945C24.308 16.9945 26.0408 18.7274 26.0408 20.8574C26.0408 22.9874 24.308 24.7217 22.178 24.7217Z" fill="white"/>
<path id="Vector_5" d="M26.9651 33.103H17.1866C13.1309 33.103 9.83087 29.803 9.83087 25.7473V15.9687C9.83087 11.913 13.1323 8.61304 17.1866 8.61304H26.9651C31.0223 8.61304 34.3209 11.913 34.3209 15.9687V25.7473C34.3223 29.803 31.0223 33.103 26.9651 33.103ZM17.1866 10.9173C14.4009 10.9173 12.1352 13.183 12.1352 15.9702V25.7487C12.1352 28.5345 14.4009 30.8016 17.1866 30.8016H26.9651C29.7509 30.8016 32.018 28.5359 32.018 25.7487V15.9702C32.018 13.1845 29.7509 10.9173 26.9651 10.9173H17.1866Z" fill="white"/>
</g>
</g>
<defs>
<radialGradient id="paint0_radial_152_176" cx="0" cy="0" r="1" gradientUnits="userSpaceOnUse" gradientTransform="translate(30.1517 33.095) scale(30)">
<stop stop-color="#000056"/>
<stop offset="0.2482" stop-color="#4C4C88" stop-opacity="0.7518"/>
<stop offset="0.5193" stop-color="#9898BB" stop-opacity="0.4807"/>
<stop offset="0.744" stop-color="#D0D0E0" stop-opacity="0.256"/>
<stop offset="0.9103" stop-color="#F2F2F6" stop-opacity="0.0897"/>
<stop offset="1" stop-color="white" stop-opacity="0"/>
</radialGradient>
</defs>
</svg>
