<svg width="63" height="62" viewBox="0 0 63 62" fill="none" xmlns="http://www.w3.org/2000/svg">
<g id="WA">
<g id="Group">
<path id="Vector" opacity="0.8" d="M31.4782 61.8469C48.5568 61.8469 62.4017 48.002 62.4017 30.9235C62.4017 13.8449 48.5568 0 31.4782 0C14.3997 0 0.554749 13.8449 0.554749 30.9235C0.554749 48.002 14.3997 61.8469 31.4782 61.8469Z" fill="url(#paint0_radial_145_6)"/>
<path id="Vector_2" d="M21.6839 43.8131C33.5754 43.8131 43.2154 34.1731 43.2154 22.2816C43.2154 10.39 33.5754 0.75 21.6839 0.75C9.79231 0.75 0.152283 10.39 0.152283 22.2816C0.152283 34.1731 9.79231 43.8131 21.6839 43.8131Z" fill="black"/>
<path id="Vector_3" d="M10.0508 34.4655L11.8473 27.7668C10.8312 25.9335 10.2952 23.8778 10.2952 21.7927C10.2952 14.9734 15.8438 9.42627 22.6617 9.42627C29.4795 9.42627 35.0281 14.9748 35.0281 21.7927C35.0281 28.6106 29.4795 34.1592 22.6617 34.1592C20.6133 34.1592 18.5915 33.6408 16.7832 32.6601L10.0508 34.4655ZM17.119 30.1524L17.5416 30.4056C19.0996 31.3333 20.8696 31.8237 22.6631 31.8237C28.1926 31.8237 32.6927 27.3236 32.6927 21.7942C32.6927 16.2633 28.1926 11.7632 22.6631 11.7632C17.1323 11.7632 12.6321 16.2633 12.6321 21.7942C12.6321 23.6201 13.1402 25.4181 14.0988 26.9937L14.3594 27.4208L13.3566 31.1596L17.119 30.1524Z" fill="white"/>
<path id="Vector_4" fill-rule="evenodd" clip-rule="evenodd" d="M27.2634 23.514C26.7539 23.2092 26.0912 22.8691 25.4919 23.115C25.0324 23.3035 24.7379 24.0235 24.4405 24.3917C24.2874 24.5802 24.1048 24.6081 23.8691 24.5154C22.1418 23.8262 20.8195 22.6732 19.8653 21.0858C19.7048 20.8384 19.7328 20.6441 19.9286 20.4158C20.2158 20.0771 20.5765 19.6913 20.6546 19.2348C20.7326 18.7769 20.5176 18.2438 20.3291 17.8374C20.0876 17.3161 19.8182 16.5769 19.2984 16.2809C18.8198 16.01 18.1881 16.1631 17.7625 16.5091C17.0262 17.1085 16.6713 18.0479 16.6831 18.9786C16.6861 19.2437 16.717 19.5072 16.7788 19.762C16.929 20.376 17.2117 20.9503 17.5313 21.4952C17.7728 21.906 18.0335 22.3051 18.3162 22.6894C19.2395 23.944 20.388 25.0337 21.7207 25.8495C22.3848 26.2559 23.1019 26.6152 23.8426 26.8597C24.6731 27.135 25.4139 27.4207 26.3136 27.2499C27.2531 27.0717 28.1808 26.4901 28.5533 25.5844C28.6638 25.315 28.7197 25.016 28.6578 24.7333C28.5297 24.1458 27.736 23.7968 27.2634 23.514Z" fill="white"/>
</g>
</g>
<defs>
<radialGradient id="paint0_radial_145_6" cx="0" cy="0" r="1" gradientUnits="userSpaceOnUse" gradientTransform="translate(31.4788 30.9241) scale(30.9235)">
<stop stop-color="#000056"/>
<stop offset="0.2482" stop-color="#4C4C88" stop-opacity="0.7518"/>
<stop offset="0.5193" stop-color="#9898BB" stop-opacity="0.4807"/>
<stop offset="0.744" stop-color="#D0D0E0" stop-opacity="0.256"/>
<stop offset="0.9103" stop-color="#F2F2F6" stop-opacity="0.0897"/>
<stop offset="1" stop-color="white" stop-opacity="0"/>
</radialGradient>
</defs>
</svg>
