<svg width="151" height="134" viewBox="0 0 151 134" fill="none" xmlns="http://www.w3.org/2000/svg">
<path d="M75.4438 0C57.2142 0 42.4372 14.7636 42.4372 32.9766C42.4372 47.7009 64.0094 74.5375 72.2741 84.2787C73.9481 86.252 76.9422 86.252 78.6135 84.2787C86.8783 74.5375 108.451 47.7009 108.451 32.9766C108.451 14.7636 93.6735 0 75.4438 0ZM75.4438 43.9688C69.3664 43.9688 64.4416 39.0484 64.4416 32.9766C64.4416 26.9047 69.3664 21.9844 75.4438 21.9844C81.5213 21.9844 86.4461 26.9047 86.4461 32.9766C86.4461 39.0484 81.5213 43.9688 75.4438 43.9688ZM5.27059 56.5182C3.71503 57.1398 2.38154 58.2127 1.4421 59.5987C0.502667 60.9846 0.000372558 62.62 0 64.2938L0 129.807C0 132.77 2.99418 134.796 5.74735 133.696L41.9132 117.25V56.2486C39.5975 52.0663 37.7036 47.994 36.3466 44.0996L5.27059 56.5182ZM75.4438 94.1324C71.7581 94.1324 68.2714 92.515 65.8798 89.6936C60.7297 83.6218 55.2521 76.7071 50.2959 69.6146V117.247L100.592 133.997V69.6172C95.6355 76.7071 90.1606 83.6244 85.0079 89.6963C82.6162 92.515 79.1296 94.1324 75.4438 94.1324ZM145.14 42.1786L108.974 58.625V134L145.617 119.357C147.173 118.736 148.507 117.663 149.446 116.277C150.386 114.891 150.888 113.255 150.888 111.581V46.0677C150.888 43.1051 147.893 41.0794 145.14 42.1786Z" fill="url(#paint0_linear_318_158)"/>
<defs>
<linearGradient id="paint0_linear_318_158" x1="75.4438" y1="0" x2="75.4438" y2="134" gradientUnits="userSpaceOnUse">
<stop stop-color="#BE96FB"/>
<stop offset="0.5625" stop-color="#AA80F9"/>
<stop offset="1" stop-color="#772FFF"/>
</linearGradient>
</defs>
</svg>
